<?xml version="1.0" encoding="utf-8"?>
<!-- Generator: Adobe Illustrator 26.0.0, SVG Export Plug-In . SVG Version: 6.00 Build 0)  -->
<svg version="1.1" id="Laag_1" xmlns="http://www.w3.org/2000/svg" xmlns:xlink="http://www.w3.org/1999/xlink" x="0px" y="0px"
	 viewBox="0 0 1920 1080" style="enable-background:new 0 0 1920 1080;" xml:space="preserve">
<style type="text/css">
	.st0{fill:#FFFFFF;}
	.st1{fill:#3D174F;}
	.st2{fill:#EE2352;}
	.st3{fill:#2C0055;}
	.st4{fill:#7C2A8B;}
	.st5{fill:#E73258;}
	.st6{fill:#370D3E;}
	.st7{fill:#E72B54;}
	.st8{fill:#E72953;}
	.st9{fill:#E72F56;}
	.st10{fill:#E72D55;}
	.st11{fill:#E73157;}
</style>
<g>
	<path class="st0" d="M164.1,533.8c0.1-0.6,0.6-1.4,1.2-1.6c0.8-0.2,1.6-0.4,2.4-0.7c3.5-7.9,10.1-14.2,17.9-18.1
		c11.4-5.8,25.4-6.1,37.7-3.3c3.5,0.8,5.8,2.5,7,5.9c0.3,0.9,0.6,1.8,0.9,2.7c0.4,0.2,0.8,0.5,0.9,1.1c0.7,2.7,1.4,5.3,2.1,8
		c0.2,0.8-0.1,1.5-0.5,2c0.7,5.4,1.2,10.9,1.5,16.4c2,2.6,2.7,5.7,3.6,8.9c0.4,1.3,0.9,2.5,1.6,3.7c5.5,3.2,10.9,6.6,16.2,10.4
		c1.5,0.4,2.4,2.4,0.8,3.4c-16.8,10.1-37.4,12.7-56.2,7.5c-0.1,0.7-0.7,1.3-1.6,1.4c-8.9,0.6-17.6-5.7-23.3-11.9
		c-5.6-6.1-9.5-13.7-11.3-21.7C163.8,543.2,163.6,538.5,164.1,533.8z"/>
	<path class="st1" d="M-112.1,642.9c1.4,2.5,3,4.8,4.8,7c2.4,2.9,5.2,5.5,8.5,7.7c7,4.6,15.1,7.3,23.3,8.7
		c18.4,3.1,37.8,0.3,54.7-7.7c1.3-0.6,1.4-2,0.8-3l1-0.7c1.4-1,2.8-2,4.2-3c13.1-9.1,26.7-17.3,40.9-24.6
		c14.7-7.5,29.7-14.5,44.6-21.7c0,1,0.1,1.9,0.1,2.9c1.5,29.6,4.8,59.2,9.6,88.4c-1.6,0.5-2.3,3-0.3,3.7c14,4.3,28.1,8.7,42.2,13
		c12.2,3.7,24.3,7.7,36.6,11c12.3,3.2,24.9,4.7,37.5,6.7c21.2,3.5,41.4,11.6,62.6,14.7c1.5,7.6,2.9,15.2,4.3,22.9
		c3.5,18.9,7,37.9,12.8,56.2c5.1,15.9,11.8,32,23.1,44.5c10.7,11.9,25.7,20.1,42,20.2c2.5,0,4.9-0.2,7.3-0.6c4.1-0.7,8.1-2.1,11.8-4
		c4.4-4.2,8.1-9.2,11-14.7c1.4-2.5,2.5-5.2,3.5-7.9c5.7-15.6,5.9-32.6,5.1-49c-1.8-35.4-7.4-70.7-16-105.1
		c-4.3-17.3-9.3-34.5-15.4-51.3c-2.8-7.8-6-15.4-10.1-22.6c-4-6.9-8.9-13.2-14.4-18.9c-10.9-11.2-23.7-20.1-36.7-28.6
		c-8.6-5.7-17.2-11.3-25.8-17c-0.9-0.6-1.8-1.2-2.7-1.7c-0.3,0.1-0.6,0.3-0.8,0.7c-0.6,0.8-1.2,1.6-1.8,2.3
		c-6.4,7.3-16.9,9.4-26.3,10.1c-19.1,1.6-42.8,0-56.4-15.5c-8.8-10-11.5-24.4-7.9-37.1c0.4-1.4,0.9-2.8,1.4-4.1
		c-0.4-0.4-0.9-0.9-1.4-1.4c-2.4-2.8-4.9-5.1-7.7-7.2c-6.6-5-12.2-11.8-19.1-16.6c-6.7-4.6-14.2-8-22.1-9.6
		c-16.1-3.4-33.3-0.6-48.4,5.6c-4,1.6-7.9,3.5-11.7,5.7c-31,18.1-141.7,95.8-155.3,108.2c-7.9,7.2-11.9,16.3-13.2,25.5
		C-112.1,637.6-112.2,640.2-112.1,642.9z"/>
	<path class="st2" d="M34.1,762.1c24,4.2,48.1,8.5,72.1,12.9c4.1-19.9,8.2-39.8,12.4-59.6c-0.8-0.2-1.5-0.3-2.2-0.5
		c-23.5-4.8-47-9.8-70.5-14.7c-1.3,7.4-2.7,14.7-4,22.1C39.3,735.5,36.7,748.8,34.1,762.1z"/>
	<path class="st0" d="M-40,808.5c5.8,5.6,15.8,9.7,31.4,13l25,5.2l3.9,0.8l71.9,14.9l3.9,0.8l77.1,16l3.9,0.8l39.2,8.1
		c12.1,2.5,25.3,0.8,31.9-30.9c1.5-7.3,3.7-18,6-29.8c0.3-1.3,0.5-2.6,0.8-3.9c4.3-21.6,9.1-46.1,12.1-60.9c0.3-1.4,0.5-2.7,0.8-3.9
		c1.1-5.8,1.8-9.4,1.9-9.6c0.4-2,0.8-3.9,1.2-5.9c2.3-10.7,4.3-20.6,4.9-28.9c0.1-1.4,0.1-2.8,0.1-4.1c0-5.3-0.9-9.8-3.1-13.1
		c-2.4-3.7-6.3-6-12-7.2l-45.3-9.4l-3.9-0.8l-74.4-15.4l-3.9-0.8l-75.4-15.6L54,627l-28.8-6c-6-1.3-11.1-1.9-15.5-1.9
		c-12.5,0-18.8,5-22.8,14.5c-0.5,1.2-0.9,2.5-1.4,3.8c-0.9,2.7-1.6,5.6-2.3,8.9l-7.2,34.9l-0.8,3.9l-13.3,64.4l-0.8,3.9l-6.5,31.2
		C-47.6,795.3-45.8,802.8-40,808.5z M34.1,762.1c2.6-13.3,5.2-26.6,7.7-39.9c1.4-7.3,2.7-14.7,4-22.1c23.5,5,47,9.9,70.5,14.7
		c0.8,0.2,1.5,0.3,2.2,0.5c-4.1,19.9-8.2,39.8-12.4,59.6C82.1,770.6,58.1,766.3,34.1,762.1z"/>
	<path class="st3" d="M-42.7,811.3c6.3,6.1,16.9,10.6,33.3,14l25,5.2l3.9,0.8l71.9,14.9l3.9,0.8c0,0,77.1,16,77.1,16l3.9,0.8
		l39.3,8.1c2.7,0.6,5.2,0.8,7.6,0.8c15,0,24-11.1,28.9-34.8c1.5-7.3,3.7-18,6-29.9c0.3-1.3,0.5-2.6,0.8-3.9
		c4.3-21.7,9.2-46.3,12.1-61c0.3-1.4,0.5-2.7,0.8-3.9c1.1-5.6,1.8-9.1,1.8-9.4c0.4-2,0.8-3.9,1.2-5.8c2.3-10.9,4.3-20.7,4.9-29
		c0.1-1.4,0.2-2.7,0.2-4c-1.3-0.2-2.7-0.5-4-0.7c0,1.3,0,2.7-0.1,4.1c-0.5,8.3-2.6,18.2-4.9,28.9c-0.4,1.9-0.8,3.9-1.2,5.9
		c0,0.2-0.7,3.7-1.9,9.6c-0.2,1.2-0.5,2.5-0.8,3.9c-2.9,14.8-7.8,39.3-12.1,60.9c-0.3,1.3-0.5,2.6-0.8,3.9
		c-2.4,11.8-4.5,22.5-6,29.8c-6.6,31.7-19.8,33.4-31.9,30.9l-39.2-8.1l-3.9-0.8l-77.1-16l-3.9-0.8l-71.9-14.9l-3.9-0.8l-25-5.2
		c-15.6-3.2-25.6-7.3-31.4-13c-5.9-5.7-7.6-13.2-5.4-23.6l6.5-31.2l0.8-3.9l13.3-64.4l0.8-3.9l7.2-34.9c0.7-3.2,1.4-6.2,2.3-8.9
		c0.4-1.3,0.9-2.6,1.4-3.8c-1.3-0.3-2.6-0.5-3.9-0.8c-0.5,1.2-0.9,2.5-1.4,3.8c-0.9,2.7-1.6,5.7-2.3,8.9l-7.2,35l-0.8,3.9
		l-13.4,64.6l-0.8,3.9l-6.4,31.1C-51.7,795.8-49.6,804.7-42.7,811.3z"/>
	<path class="st3" d="M-17,632.9c1.3,0.3,2.6,0.6,3.9,0.8c11.8,2.5,23.5,4.9,35.3,7.4c59.8,12.4,119.8,24.2,179.8,35.5
		c24.7,4.6,49.3,9.2,74,13.6c1.3,0.3,2.7,0.5,4,0.7c0-6.4-1-11.8-3.8-16c-3-4.6-7.8-7.5-14.5-8.9l-45.4-9.4l-3.9-0.8l-74.2-15.4
		l-3.9-0.8l-75.6-15.7l-3.9-0.8L26,617.2C2,612.2-10.2,616.2-17,632.9z"/>
	<path class="st3" d="M-18.3,636.7c1.3,0.3,2.6,0.6,3.9,0.8c45.5,9.6,91.1,18.8,136.7,27.8c51.1,10,102.4,19.7,153.6,28.9
		c1.3,0.2,2.6,0.5,3.9,0.7c0.1-1.4,0.2-2.7,0.2-4c-1.3-0.2-2.7-0.5-4-0.7c-24.7-4.4-49.4-9-74-13.6c-60-11.3-120-23.1-179.8-35.5
		c-11.8-2.4-23.5-4.9-35.3-7.4c-1.3-0.3-2.6-0.5-3.9-0.8C-17.5,634.1-17.9,635.4-18.3,636.7z"/>
	<path class="st3" d="M172.4,862.9l3.9,0.8c0.3-1.3,0.6-2.6,0.8-3.9c1-4.5,1.9-9,2.9-13.5c3.6-17.2,7.2-34.3,10.6-51.5
		c0.3-1.3,0.5-2.6,0.8-3.9c2.9-14.3,5.7-28.6,8.4-42.9c1-5.4,2.1-10.9,3.1-16.3c0.3-1.3,0.5-2.6,0.7-3.9c4.2-22.4,8.2-44.9,12-67.3
		c0.2-1.3,0.4-2.6,0.7-3.9l-3.9-0.8c-0.2,1.3-0.4,2.6-0.7,3.9c-2.5,14.9-5.1,29.8-7.8,44.6c-1.4,7.6-2.8,15.2-4.2,22.8
		c-0.2,1.3-0.5,2.6-0.7,3.9c-3.7,19.8-7.5,39.5-11.4,59.2c-0.3,1.3-0.5,2.6-0.8,3.9c-0.5,2.7-1.1,5.4-1.6,8.1
		c-3.8,19-7.8,38-11.9,56.9C173,860.4,172.7,861.7,172.4,862.9z"/>
	<path class="st3" d="M91.4,846.2l3.9,0.8c0.3-1.3,0.5-2.6,0.8-3.9c0.4-1.8,0.8-3.7,1.1-5.5c4-19.3,8-38.6,12-58
		c0.3-1.3,0.5-2.6,0.8-3.9c3.1-15.2,6.3-30.4,9.4-45.6c1-4.7,1.9-9.3,2.9-14c0.3-1.3,0.5-2.6,0.8-3.9c4.7-22.7,9.4-45.3,14.1-68
		c0.3-1.3,0.5-2.6,0.8-3.9l-3.9-0.8c-0.3,1.3-0.5,2.6-0.8,3.9c-2.7,13-5.4,26.1-8.1,39.1c-2,9.6-4,19.3-6,28.9
		c-0.3,1.3-0.5,2.6-0.8,3.9c-4.1,19.9-8.2,39.8-12.4,59.6c-0.3,1.3-0.5,2.6-0.8,3.9c-0.8,3.7-1.5,7.4-2.3,11.1
		c-3.6,17.4-7.2,34.8-10.8,52.3C91.9,843.6,91.7,844.9,91.4,846.2z"/>
	<path class="st3" d="M15.6,830.5l3.9,0.8c0.3-1.3,0.6-2.6,0.8-3.9c0.3-1.1,0.5-2.2,0.7-3.3c4.2-19.3,8.3-38.7,12.2-58.1
		c0.3-1.3,0.5-2.6,0.8-3.9c2.6-13.3,5.2-26.6,7.7-39.9c1.4-7.3,2.7-14.7,4-22.1c0.2-1.3,0.5-2.6,0.7-3.9c4-22.8,7.9-45.6,11.4-68.4
		c0.2-1.3,0.4-2.6,0.6-3.9l-3.9-0.8c-0.2,1.3-0.4,2.6-0.6,3.9c-2.9,18.3-5.9,36.5-9,54.7c-0.8,4.6-1.6,9.1-2.4,13.7
		c-0.2,1.3-0.5,2.6-0.7,3.9c-3.7,20.7-7.6,41.4-11.8,62.1c-0.3,1.3-0.5,2.6-0.8,3.9c-1.8,8.9-3.6,17.8-5.5,26.7
		c-2.4,11.5-4.9,23.1-7.4,34.6C16.1,827.9,15.9,829.2,15.6,830.5z"/>
	<path class="st3" d="M-28.7,684.5c1.3,0.3,2.6,0.5,3.9,0.8c22.2,4.6,44.4,9.3,66.7,14c1.3,0.3,2.6,0.6,3.9,0.8
		c23.5,5,47,9.9,70.5,14.7c0.8,0.2,1.5,0.3,2.2,0.5c1.3,0.3,2.6,0.5,3.9,0.8c25.5,5.2,51,10.2,76.5,14.9c1.3,0.3,2.6,0.5,3.9,0.7
		c21.4,3.9,42.8,7.5,64.2,10.8c1.3,0.2,2.6,0.4,3.9,0.6c0.3-1.4,0.5-2.7,0.8-3.9c-1.3-0.2-2.6-0.4-3.9-0.6
		c-17.2-2.6-34.3-5.5-51.4-8.5c-4.3-0.8-8.6-1.5-12.8-2.3c-1.3-0.2-2.6-0.5-3.9-0.7c-25.5-4.7-51-9.7-76.4-14.9
		c-1.3-0.3-2.6-0.5-3.9-0.8c-24.3-5-48.6-10.1-72.8-15.2c-1.3-0.3-2.6-0.6-3.9-0.8c-17.3-3.7-34.6-7.3-51.9-10.9
		c-4.9-1-9.8-2-14.7-3.1c-1.3-0.3-2.6-0.5-3.9-0.8L-28.7,684.5z"/>
	<path class="st4" d="M191.4,790.9c21.2,4,42.4,8.2,63.6,12.4c4.3-21.6,9.1-46.1,12.1-60.9c-21.5-3.3-42.9-6.9-64.2-10.8
		c-1,5.4-2,10.9-3.1,16.3C197.1,762.4,194.3,776.7,191.4,790.9z"/>
	<path class="st0" d="M214.1,742.8c7.6,10.3,12.5,22.4,14.4,35.1c7.6-5.7,14.6-12.2,20.7-19.4c1.6-1.9,4.8,0.5,3.1,2.4
		c-7.1,8.3-15.2,15.8-24.2,22.1c-1.2,0.9-3,0.2-3.2-1.4c-1.4-13.2-6.3-25.8-14.1-36.5C209.5,743.1,212.6,740.7,214.1,742.8z"/>
	<path class="st3" d="M-42.9,753c1.3,0.2,2.6,0.4,3.9,0.7c22.8,3.8,45.5,7.7,68.3,11.7c1.3,0.2,2.6,0.5,3.9,0.7
		c19.3,3.4,38.6,6.8,57.8,10.3c4.7,0.9,9.5,1.7,14.2,2.6c1.3,0.2,2.6,0.5,3.9,0.7c25.9,4.7,51.7,9.5,77.5,14.5
		c1.3,0.3,2.6,0.5,3.9,0.8c21.2,4,42.4,8.2,63.6,12.4c1.3,0.3,2.6,0.5,3.9,0.8c0.3-1.3,0.5-2.6,0.8-3.9c-1.3-0.3-2.6-0.5-3.9-0.8
		c-21.2-4.2-42.4-8.3-63.6-12.4c-1-0.2-2-0.4-3.1-0.6c-0.3-0.1-0.6-0.1-0.9-0.2c-25.8-4.9-51.6-9.8-77.4-14.5
		c-1.3-0.3-2.6-0.5-3.9-0.7c-24-4.4-48-8.7-72.1-12.9c-1.3-0.2-2.6-0.5-3.9-0.7c-20.9-3.7-41.9-7.3-62.8-10.8
		c-1.8-0.3-3.6-0.6-5.4-0.9c-1.3-0.2-2.6-0.4-3.9-0.6L-42.9,753z"/>
	<path class="st0" d="M273.9,795c-5.5-2.3-10.9-5.2-17-5.6c-3.2-0.2-6.5,0.4-9.4,1.8c-3.5,0.8-6.4,3.9-6.6,7.6
		c0,0.7,0.3,1.3,0.9,1.8c-0.4,1.4-0.6,2.8-0.5,4.3c0,0.9,0.2,1.8,0.4,2.7c0,0.1,0.1,0.3,0.1,0.4c-0.3,0.1-0.6,0.3-0.8,0.4
		c-3.7,1.7-6.2,5.6-6,9.7c0.2,3.2,2,6.2,4.7,7.9c-1.9,3.8-2.2,8.2-0.6,12.3c0.3,0.7,0.7,1.1,1.3,1.2c0.1,0.4,0.2,0.8,0.3,1.2
		c1.3,4.4,4.6,7.6,8.9,9.1c2,0.7,4.1,1,6.2,1.1c0.7,0,1.4,0,2.2,0c3.8,4.8,8.3,9,13.1,12.8c2.4,1.9,4.9,3.8,7.5,5.6
		c2.4,1.7,4.7,3.6,7.3,5c5,2.6,11-0.3,15.5-2.8c7.9-4.4,14.4-11.2,18.3-19.4c4.5-2.2,8.6-5.2,12.3-8.6c2.9-2.6,5.7-5.3,8.1-8.3
		c2.3-2.9,4.2-6.5,3.4-10.4c-1.4-7.2-8.8-9.1-14.3-12.6c0-0.5-0.3-0.9-0.8-1.3c-6.4-4.8-12.9-9.5-19-14.8
		c-6.1-5.3-11.4-11.2-16.4-17.5c-4.2-5.3-8.5-10.4-14-14.3c-5.1-3.6-10.8-6.2-16.8-7.8c-6.1-1.7-12.5-2.5-18.8-2.4
		c-5.6,0.1-16.2-0.2-18.7,5.9c-1.1,2.6-1.2,6.5,1,8.3c2.2,1.9,6.9,2.8,9.7,3c5.8,0.5,13.7,0.1,18.8,2.7
		C262.9,778.4,269.6,786.1,273.9,795z"/>
	<path class="st3" d="M228.5,753.6c5.4-3,11.8-2.9,17.7-2c10.7,1.7,21.4,5.5,30.8,10.8c10.4,5.9,19.5,14,25.7,24.3
		c1.3,2.2-2,4.4-3.3,2.2c-10.4-17.2-28.9-27.6-48.1-32.2c-5.5-1.3-11.6-2.5-17.2-1.1c-4.2,1.1-10.1,5.2-7.5,10.3
		c2.5,4.9,10.1,3.1,14.4,3.3c4.6,0.1,9.2,1.1,13.5,2.9c9.7,4.1,17.7,12.2,21.3,22.1c0.9,2.4-2.9,3.7-3.7,1.3
		c-3.4-9.4-11.2-16.8-20.6-20.3c-5.1-1.9-10-2.1-15.4-1.9c-5.2,0.1-11.4-0.9-13.5-6.4C220.8,761.6,223.9,756.1,228.5,753.6z"/>
	<path class="st3" d="M242,791.8c4-3.4,9.5-3.7,14.5-3c11,1.5,21.9,5.2,31.9,10c2.3,1.1,0.6,4.7-1.7,3.6c-8.7-4.2-17.9-7.3-27.4-9.1
		c-4.4-0.8-9.5-1.7-13.5,0.7c-4.2,2.5-3.9,6.9-3.3,11.3c0.4,2.5-3.6,2.8-3.9,0.3C237.8,800.5,237.8,795.3,242,791.8z"/>
	<path class="st3" d="M235.6,808.5c3.3-3.1,8.1-3.3,12.3-3c5.2,0.4,10.4,1.1,15.5,1.9c6,0.9,12,2,17.9,3.3c2.5,0.5,1.8,4.4-0.7,3.9
		c-10.9-2.4-22.2-4.6-33.4-5.3c-4.5-0.3-9.8,0.4-10.9,5.7c-0.9,4.4,1.3,9.2,5.1,11.4c2.2,1.3,0.5,4.9-1.7,3.6
		c-3.7-2.2-6.3-5.7-7.2-9.9C231.6,816.1,232.4,811.4,235.6,808.5z"/>
	<path class="st3" d="M237.7,827.7c3.9-4,10.7-3.1,15.8-3.1c7.5,0,15,0,22.5,0c2.5,0,2.8,3.9,0.3,3.9c-5.6,0-11.1,0-16.7,0l-8.5,0
		c-2.4,0-4.9-0.2-7.3,0.3c-2,0.4-3.8,1.3-4.4,3.4c-0.7,2.3,0.3,4.8,1.5,6.8c2.1,3.7,4.8,8.5,9.2,9.7c4.7,1.3,9.9-0.5,14.6-1
		c2.5-0.3,2.8,3.7,0.3,3.9c-5,0.5-10.1,2.2-15.1,1.1c-5.6-1.2-8.8-5.9-11.6-10.5C235.7,838,233.6,831.9,237.7,827.7z"/>
	<path class="st3" d="M259.2,844.2c-0.4-0.3-0.6-0.9-0.7-1.4c0-0.5,0.1-1.1,0.5-1.4c0.4-0.4,0.8-0.7,1.4-0.7c0.6,0,1,0.2,1.4,0.5
		c2.1,1.5,3.8,3.8,4.5,6.3c0.3,1-0.2,2.2-1.2,2.5c-1,0.3-2.2-0.2-2.5-1.2c-0.1-0.5-0.3-1-0.6-1.4c-0.4-0.7-0.8-1.3-1.2-1.8
		C260.3,845,259.8,844.6,259.2,844.2z"/>
	<path class="st3" d="M299.4,789c6.8,6,13.7,12.1,20.5,18.1c1.3,1.2,2.6,2.4,3.9,3.5c0.4-1.4,0.8-2.9,1.1-4.3
		c-7.7-6.7-15.3-13.5-23-20.3C300.1,784.3,297.5,787.3,299.4,789z"/>
	<path class="st3" d="M256.6,852.8c2.8,2.9,5.6,5.8,8.5,8.5c7.2,6.8,14.8,13,22.9,18.6c0.9-0.9,1.8-1.9,2.7-2.9
		c-11.2-7.8-21.6-16.7-31-26.6C258,848.6,254.8,851,256.6,852.8z"/>
	<path class="st0" d="M-85.2,700.9c11.4,21.8,24.6,42.6,39.4,62.2c0.7,0.9,1.6,1,2.3,0.6c1.3,2,2.6,3.9,4.1,5.8
		c6.3,7.6,16.2,13.7,26.3,10.4c0.6-0.2,1.1-0.9,1.3-1.6c4.4,2.6,9.4,4.3,14.5,4.9c3.3,0.3,8,0.7,10.2-2.4c0.2-0.3,0.4-0.7,0.6-1.1
		c2.1,0.8,4.2,1.4,6.4,1.6c1.2,0.2,2.5,0.4,3.7,0.4c3.4,0,6.7-0.9,9.7-2.6c0.2-0.1,0.3-0.2,0.5-0.3c0.7-0.4,0.9-1.1,0.8-1.7
		c0.1-0.1,0.2-0.1,0.4-0.2c0.4,0.2,0.7,0.4,1.1,0.6c7.1,3.4,15.1,5.2,23.1,4.7c4-0.3,8.1-1.1,11.8-2.7c3-1.3,6.7-3.1,7.4-6.7
		c0.3-1.6-0.1-3.5-1.3-4.7c-1.3-1.4-3-1.5-4.9-1.4c-3.8,0.2-7.5,0-11.3-0.8c-5.7-1.2-11-3.8-15.6-7.3c-1.3-1.3-2.7-2.5-4.2-3.7
		c-0.6-0.5-1.3-0.6-1.8-0.3c-4.2-4.5-8-9.5-11.3-14.8c-0.5-0.8-1.4-0.9-2.1-0.7c-0.3-0.8-0.6-1.6-0.8-2.4
		c-1.8-6.7-0.7-14.8,5.1-19.3c3.1-2.4,6.9-3.6,10.6-4.7c4.6-1.4,9.3-2.8,13.9-4.1c3.5-1,10-2.7,11.8-6.3c1.4-3.1-0.5-7.2-2.7-9.7
		c-6.1-6.8-17.3-1.2-25-2.2c-0.4-0.3-0.8-0.4-1.4-0.4c-10.9,0.9-22.5,1.9-32.9-2c-9.2-3.5-15.3-10.8-19.6-19.2l-1.9-4
		c-0.9-1.8-3.4-1.3-3.8,0.2c-2.6-0.8-5.6-0.6-8.3-0.4c-3.1,0.2-6.2,0.5-9.3,1c-10.9,1.8-21.4,5.5-30.9,11c-4.8,2.8-9.5,6-13.7,9.7
		c-1.9,1.7-3.7,3.7-4.3,6.3C-87.9,695.7-86.5,698.4-85.2,700.9z"/>
	<path class="st3" d="M-112.1,642.9c0.2,7.7,2.2,15.1,5.2,21.3c5.3,10.6,49.1,93.8,66.3,109.5c9.2,8.4,16.2,10.6,21.3,10.6
		c3.6,0,6.1-1.1,7.8-1.8c0.3-0.1,0.6-0.3,0.9-0.4c1-0.3,1.6-1.5,1.3-2.5c-0.4-1-1.5-1.6-2.5-1.3c-0.3,0.1-0.7,0.3-1.2,0.5
		c-3.5,1.5-10.9,4.6-24.8-8.1c-15.7-14.3-57.6-92.6-65.4-108.3c-1.6-3.2-3.1-7.6-4-12.6C-109.1,647.7-110.7,645.4-112.1,642.9z"/>
	<path class="st0" d="M157,521.1c1.2,4.2,3.1,8.2,6,11.4c3.2,3.5,7.5,6,11.8,8c8.4,3.9,18.2,5.8,27.3,3.7
		c8.2-1.8,15.8-6.4,20.5-13.5c0.6-0.9,0.4-1.8-0.2-2.5c0.9-1.7,1.9-3.3,2.8-5c1-1.8,2-3.6,3.1-5.4c0.4-0.7,0.7-1.3,1.5-1.5
		c0.1,0,0.3,0,0.4,0c0.4,0.3,1,0.3,1.6,0.1c0.2,0,0.3,0,0.5,0c3.2,0.1,6.5-0.8,8.8-3.2c0.9-1,1.5-2.2,1.8-3.5c0.5-0.5,1-1.1,1.4-1.7
		c2.6-3.7,3.6-8.8,1.3-12.9c-2-3.5-5.7-5.1-9.2-6.7c-1.7-0.8-3.5-1.6-4.9-2.8c-1.8-1.5-2.7-3.4-3.3-5.6c-1.3-4-2.5-7.8-5.2-11.2
		c-2.5-3.2-5.6-5.8-9-7.8c-7.6-4.5-16.4-6-25.3-5.5c-5.2,0.3-10.4,1.2-15.5,2.4c-2.6,0.6-5.2,1.2-7.7,2c-2,0.6-4,1.5-5.2,3.2
		c-1.4,1.9-1.8,4.3-2.4,6.5c-0.6,2.4-1.2,4.8-1.7,7.3c-1,5.1-1.6,10.2-1.9,15.4C153.9,501.9,154.4,511.9,157,521.1z"/>
	<path class="st3" d="M155.9,462.8c1-2.3,4.6-0.8,3.6,1.5c-3.7,8.7-4.6,18.1-4.4,27.4c0.1,4.7,0.6,9.4,1.1,14.1
		c0.5,4.8,0.8,9.7,2.1,14.3c4.3,15.5,21.6,23.8,36.6,23.8c9.6,0,19.9-3.7,24.7-12.5c1.2-2.2,4.9-0.7,3.6,1.5
		c-9.4,17.4-33.4,17.9-49.4,10c-7.5-3.7-14-9.4-17.6-17.1c-2.1-4.4-2.8-9.3-3.3-14.1c-0.6-5.2-1.2-10.4-1.5-15.6
		C150.7,485,151.3,473.3,155.9,462.8z"/>
	<path class="st3" d="M223.7,496c1.8-3.9,5-7.4,9.1-8.8c4-1.3,8.5-0.7,11.8,1.9c3.7,2.9,4.7,7.6,4.6,12.1c-0.1,4.6-1.6,9.4-4.7,12.9
		c-3.4,3.8-8.5,6-13.6,5c-2.5-0.5-1.9-4.4,0.6-3.9c10.1,1.8,15.2-9.9,13.5-18.2c-0.8-4-4.2-6.7-8.3-6.5c-4.3,0.1-7.7,3.4-9.4,7.1
		C226.3,499.9,222.6,498.4,223.7,496z"/>
	<path class="st3" d="M225.6,508.3c3.3-3.6,6.8-6.9,10.6-9.9c0.8-0.6,2.2-0.5,2.8,0.4c0.6,0.9,0.5,2.1-0.4,2.8
		c-1.8,1.4-3.5,2.9-5.2,4.5c-0.4,0.4-0.8,0.8-1.2,1.2c-0.1,0.1-0.2,0.2-0.2,0.2c-0.3,0.3-0.5,0.5-0.7,0.7c-0.8,0.8-1.6,1.7-2.4,2.5
		c-0.7,0.8-1.9,1.1-2.8,0.4C225.2,510.4,224.9,509.1,225.6,508.3z"/>
	<path class="st3" d="M145.2,463.2c0.4,0.1,0.8,0.1,1.2,0.2c-0.2,1.3,0,2.6,0.9,3.9c1.1,1.5,3,2.4,4.9,2.3c1.8-0.1,3.1-1.1,4.2-2.3
		c0,0.7,0.3,1.4,1.2,1.8c17.7,7.7,37.6,6.1,56,1.7c0.5,7,1.9,13.9,4.1,20.6c0.6,1.8,1.3,3.6,2,5.4c0.6,1.4,1.3,3,2.9,3.5
		c2.7,0.9,5.1-2.6,3.1-4.6c0.9-0.3,1.5-0.7,1.8-1.4c0.8-1.6,1.9-2.9,3.1-4.1c0.5-0.4,0.9-0.8,1.5-1.2c0.5-0.3,0.7-0.8,0.8-1.2
		c2.7-0.4,5.4,0.1,8,1c0,0.1,0,0.3,0,0.4c-0.1,2.5,3.8,3.1,3.9,0.6c0.7-12.7-0.8-25.5-4.8-37.6c-1.6-4.7-3.9-9-8.4-11.6
		c-4.1-2.4-8.9-3.3-13.6-4.1c-11.3-2.1-22.4-2.5-33.6,0.4c-10.3,2.7-19.9,7.5-29.2,12.7c-2.3,1.3-4.6,2.6-6.9,4
		c-1.9,1.1-4,2.3-5,4.4C142.4,459.9,142.8,462.7,145.2,463.2z"/>
	<path class="st3" d="M235.6,518.9c1.2,12.7,3,25.4,5.2,38c0.4,2.5-3.5,2.9-3.9,0.4c-2.3-12.6-4-25.3-5.2-38
		C231.4,516.8,235.4,516.3,235.6,518.9z"/>
	<path class="st3" d="M177.6,543.8c0.1-1,1.2-1.9,2.2-1.7c1.1,0.2,1.7,1.1,1.7,2.2c0,0.4,0,0.9-0.1,1.3c0,0.2,0,0.4,0,0.6
		c0,0.1,0,0.3,0,0.4c0,0.8,0,1.7,0.1,2.5c0.1,1.7,0.3,3.4,0.6,5.1c0.2,1-0.7,2.1-1.7,2.2c-1.1,0.1-2-0.6-2.2-1.7
		C177.5,551.1,177.4,547.5,177.6,543.8z"/>
	<path class="st3" d="M193.5,502.5c0.2-0.8,0.6-1.6,1.3-2c0.5-0.3,1.2-0.4,1.8-0.3c0.3,0.1,0.5,0.1,0.8,0.2c0.5,0.2,0.7,0.4,1.1,0.8
		c0.2,0.2,0.4,0.5,0.5,0.8c0.1,0.3,0.2,0.6,0.2,1c0,0.1,0,0.3,0,0.4c0.1,0.3,0.2,0.5,0.2,0.8c0.2,1,0,2-0.3,2.9
		c-0.2,0.4-0.7,0.9-1.1,1.1c-0.5,0.2-1.1,0.2-1.5,0c-0.4-0.2-0.8-0.5-1.1-0.8c-0.3-0.3-0.7-0.7-0.9-1c-0.5-0.8-0.9-1.6-1-2.5
		C193.4,503.4,193.4,502.9,193.5,502.5z"/>
	<path class="st3" d="M160.3,501.7c0.3-0.8,0.9-1.5,1.7-1.8c0.9-0.4,2.1-0.3,2.9,0.4c0.4,0.3,0.7,0.8,0.9,1.3
		c0.1,0.4,0.2,0.8,0.1,1.2c0.2,0.3,0.3,0.5,0.4,0.8c0.2,0.7,0.3,1.4,0.2,2.1c-0.2,1.1-0.8,2.4-2.1,2.5c-0.8,0.1-1.7-0.2-2.3-0.7
		c-0.6-0.5-0.9-1-1.3-1.7c-0.2-0.4-0.4-0.9-0.6-1.4c-0.1-0.4-0.2-0.8-0.2-1.2C160,502.6,160.1,502.2,160.3,501.7z"/>
	<path class="st3" d="M178.6,526.4c0.2-1,1.2-1.9,2.2-1.7c0.4,0.1,0.8,0.1,1.2,0.2c0.5,0,0.7,0,0.9,0c0.4,0,0.8-0.1,1.2-0.2
		c0.5-0.1,0.7-0.2,0.8-0.2c0.4-0.1,0.7-0.3,1.1-0.5c0.4-0.2,0.5-0.3,0.7-0.4c0.3-0.2,0.7-0.5,1-0.8c0.3-0.3,0.5-0.5,0.6-0.6
		c0.7-0.8,1.9-1.1,2.8-0.4c0.8,0.7,1.1,1.9,0.4,2.8c-2.7,3.2-7,4.8-11.2,4C179.2,528.5,178.3,527.5,178.6,526.4z"/>
	<path class="st2" d="M155.5,489.2c10,0,18.1,8.1,18.1,18.1c0,6.5-3.4,12.2-8.5,15.4c-0.3-0.3-0.6-0.6-0.9-0.9
		c-0.7-0.6-1.4-1.3-2.1-2c4.5-2.4,7.6-7.1,7.6-12.5c0-7.8-6.4-14.2-14.2-14.2c-6.1,0-11.3,3.9-13.3,9.2c-1.1-0.9-2.2-1.7-3.2-2.5
		C141.8,493.6,148.1,489.2,155.5,489.2z"/>
	<path class="st0" d="M137.3,507.3c0,10,8.1,18.1,18.1,18.1c3.5,0,6.8-1,9.6-2.8c-0.3-0.3-0.6-0.6-0.9-0.9c-0.7-0.6-1.4-1.3-2.1-2
		c-2,1.1-4.2,1.6-6.6,1.6c-7.8,0-14.2-6.4-14.2-14.2c0-1.7,0.3-3.4,0.9-4.9c-1.1-0.9-2.2-1.7-3.2-2.5
		C137.9,502.2,137.3,504.7,137.3,507.3z"/>
	<path class="st3" d="M160.3,488.8c3-0.3,5.7,1,8.1,2.7c2.2,1.5,4.3,3.4,5.5,5.9c1.3,2.7,1,5.9,1,8.8c0,3.3,0,6.7,0,10
		c0,1.1-0.6,2-1.7,2.2c-1,0.1-2.2-0.7-2.2-1.7c0-2.7,0-5.5,0-8.2c0-2.6,0.3-5.5-0.2-8c-0.4-2.1-2-3.6-3.6-4.9
		c-1.8-1.4-4-2.9-6.4-2.7C158.2,493,157.7,489,160.3,488.8z"/>
	<path class="st3" d="M221.9,433.4c0.1-0.8,0.7-1.4,1.5-1.6c0.7-0.2,1.6,0.1,2.1,0.7c0.5,0.7,0.8,1.5,1.1,2.3
		c1.3-0.9,2.6-1.6,4.1-2.1c0.7-0.3,1.6-0.1,2.1,0.5c0.5,0.5,0.8,1.5,0.4,2.1c-1.6,3-4.1,5.4-7.2,6.8c-0.4,0.2-0.9,0.2-1.3,0
		c-0.3,0.2-0.5,0.3-0.9,0.3c-1,0.1-2.1-0.6-2.2-1.7C221.3,438.3,221.4,435.8,221.9,433.4z"/>
	<path class="st1" d="M-106.8,664.2c2.2,4.5,11.4,22.1,22.6,42.1c0.6,1.2,1.3,2.3,2,3.5c0.5-0.4,1-0.9,1.6-1.3
		c0.5-0.4,1-0.8,1.6-1.2c19.4-15.5,40.4-29,62.6-40.1c1.2-0.6,2.4-1.2,3.6-1.8c-0.7-1.1-1.3-2.3-2-3.4c-1.3-2.4-2.7-4.7-4-7.1
		c-0.6-1.2-1.3-2.3-1.9-3.5c-0.2-0.3-0.4-0.6-0.5-0.9c-7.2-13.2-14-26.6-20.8-39.9c-0.2-0.5-0.6-0.8-1-0.9c-2.1-4.3-4.2-8.7-6.4-13
		c-1.2-2.3-2.5-4.7-4.1-6.8c-1.5-2-3.2-3.7-3.7-6.2c-0.2-0.7-0.6-1.4-1.3-1.6c-0.3-0.6-0.7-1.1-1-1.7c-19.3,13.8-34.3,25-38.8,29.1
		C-115.3,624.7-114.6,648.6-106.8,664.2z"/>
	<path class="st3" d="M-16.6,667.2c4.6,8.3,9.9,16.7,18,21.6c10.6,6.4,23.2,4.8,35,3.6c6-0.6,12.2-1.1,18.2-0.2
		c4.4,0.6,12.1,2.7,10.9,8.7c-1.4,6.5-9.7,7.6-15.1,8.2c-6.3,0.8-12.8,1.3-18.4,4.7c-5.1,3-8.2,7.9-8.2,13.8
		c0,5.8,2.4,11.6,5.4,16.4c3,4.9,7,9.1,11.4,12.7c4.5,3.7,9.6,7.1,14.9,9.5c3,1.3,6.1,2.1,9.3,2.2c3.2,0,6.5-1.3,9.6-0.8
		c1.2,0.2,2.5,0.8,3.2,1.8c0.8,1.2,0.3,2.6-0.3,3.7c-1.2,2.2-3.2,3.9-5.4,5c-5.2,2.7-11.4,3.1-17.1,2.7c-6.5-0.5-12.9-2.3-18.6-5.3
		c-11.2-5.9-19.3-16.1-26.8-25.9c-1.5-2-4.7,0.3-3.2,2.4c1.9,2.5,3.8,5,5.8,7.5c8.3,10.1,18.1,19.3,30.8,23.2c6.3,2,13,2.7,19.6,2.1
		c5.3-0.5,11-2,15-5.6c2.1-1.9,4-4.6,4.4-7.4c0.4-2.8-1.1-5.2-3.5-6.6c-2.7-1.6-5.8-1.6-8.8-1.1c-3.6,0.5-6.8,0.8-10.2-0.3
		c-5.9-1.9-11.3-5.7-16.1-9.6c-4.5-3.6-8.5-7.9-11.4-13c-2.8-4.9-5.7-12-3.6-17.6c2.1-5.7,8.5-8.3,14-9.3c6.6-1.2,13.9-0.9,20-4
		c5-2.6,9-8.6,6.3-14.3c-2.5-5.1-8.6-6.9-13.7-7.6c-6.3-0.9-12.7-0.4-19,0.2c-12.2,1.2-25.5,3-35.6-5.4c-4.6-3.8-8-8.9-11.1-14
		c-0.8-1.2-1.5-2.5-2.2-3.7C-14.2,666-15.4,666.6-16.6,667.2z"/>
	<path class="st3" d="M-82.3,709.8c14.7,26.2,32.3,55.3,41.8,63.9c9.2,8.4,16.2,10.6,21.3,10.6c3.6,0,6.1-1.1,7.8-1.8
		c0.3-0.1,0.6-0.3,0.9-0.4c1-0.3,1.6-1.5,1.3-2.5c-0.4-1-1.5-1.6-2.5-1.3c-0.3,0.1-0.7,0.3-1.2,0.5c-3.5,1.5-10.9,4.6-24.8-8.1
		c-9-8.2-26.5-37.2-41.3-63.5c-0.5,0.4-1,0.8-1.6,1.2C-81.3,708.9-81.8,709.4-82.3,709.8z"/>
	<path class="st3" d="M-5.5,759.1c5.4,6.5,11.5,13.2,18.7,17.8c3.4,2.1,7.3,3.7,11.4,3.6c4.6-0.1,8.9-1.8,13-3.7
		c2.3-1.1,3.8,2.6,1.4,3.7c-4.5,2.1-9.3,3.9-14.3,4c-4.5,0-8.7-1.4-12.5-3.6c-8.1-4.7-14.9-12.2-20.9-19.4
		C-10.3,759.5-7.1,757.1-5.5,759.1z"/>
	<path class="st3" d="M-20.5,764.9c3.9,6,8.1,12.1,15.2,14.7c6.6,2.4,15.1,3.2,21.4-0.6c2.2-1.3,4.6,1.9,2.4,3.2
		c-7.3,4.3-16.3,3.9-24.1,1.4c-8.3-2.6-13.3-9.3-17.9-16.3C-25.1,765.2-21.9,762.8-20.5,764.9z"/>
	<path class="st2" d="M181.3,506.7c0,10,8.1,18.1,18.1,18.1c10,0,18.1-8.1,18.1-18.1c0-10-8.1-18.1-18.1-18.1
		C189.4,488.5,181.3,496.7,181.3,506.7z M185.3,506.7c0-7.8,6.4-14.2,14.2-14.2c7.8,0,14.2,6.4,14.2,14.2c0,7.8-6.4,14.2-14.2,14.2
		C191.6,520.8,185.3,514.5,185.3,506.7z"/>
	<path class="st3" d="M238.6,559.6c3.7,2.5,7.5,4.9,11.2,7.4c2.2,1.4,4.4,2.9,6.6,4.3c0.6-0.7,1.3-1.5,1.8-2.3
		c0.2-0.3,0.5-0.6,0.8-0.7c-6-3.9-12-7.9-18-11.8C238.9,555.1,236.4,558.2,238.6,559.6z"/>
	<path class="st1" d="M288,879.9c1.1,0.8,2.2,1.5,3.3,2.3c4.4,2.9,8.8,5.6,13.4,8.2c7,3.9,14.4,7.5,22.5,8c6.8,0.5,13.7-1,19.8-4
		c3.2-1.5,6.1-3.4,8.8-5.5c4.4-2.8,8.2-6.5,11.1-10.8c4.1-5.9,6.7-12.8,7.8-19.9c1.2-7.9,0.7-16.5-3.2-23.6
		c-7.5-13.7-22.8-18.6-37.2-21.8c-0.4-0.1-0.7-0.3-1-0.4c-1.9-0.8-3.5-2-5.1-3.4c-0.3-0.2-0.6-0.5-0.8-0.7c-0.8-0.7-1.6-1.4-2.5-2.1
		c-0.4,1.5-0.7,2.9-1.1,4.3c-1.7,6.3-3.6,12.5-5.8,18.6c-6.2,17.3-15,34.2-27.3,47.8C289.8,878,288.9,879,288,879.9z"/>
	<path class="st2" d="M168.9,505.3c4.5-1.8,9.8-0.9,13.5,2.2c0.8,0.7,1.1,1.9,0.4,2.8c-0.7,0.8-1.9,1.1-2.8,0.4
		c-0.4-0.3-0.7-0.6-1.1-0.9c-0.1-0.1-0.2-0.1-0.3-0.2c0.3,0.2,0,0-0.1,0c-0.2-0.1-0.4-0.2-0.6-0.3c-0.4-0.2-0.9-0.4-1.3-0.5
		c-0.6-0.2-0.9-0.2-1.1-0.3c-0.5-0.1-0.9-0.1-1.4-0.1c-0.2,0-0.3,0-0.4,0c-0.2,0-0.5,0-0.7,0c-0.2,0-0.5,0.1-0.7,0.1
		c-0.1,0-0.3,0-0.4,0.1c-0.5,0.1-0.6,0.1-0.7,0.2c-0.3,0.1-0.5,0.2-0.7,0.3c-1,0.4-2.2-0.1-2.6-1.1
		C167.4,506.8,167.9,505.7,168.9,505.3z"/>
	<path class="st0" d="M-28.3,618.6c3.9,15,9.3,29.6,15.9,43.7c1.1,2.3-2.6,3.7-3.7,1.4c-6.6-14-12-28.6-15.9-43.7
		C-32.6,617.6-28.9,616.1-28.3,618.6z"/>
	<path class="st0" d="M41.4,635.3c0.3-0.8,1-1.4,1.7-1.7c0.2-0.1,0.5-0.1,0.7-0.2c0.4-0.1,0.7-0.2,1-0.2c0.7,0,1.3,0.1,1.9,0.3
		c0.6,0.2,1.1,0.6,1.6,1.1c0.2,0.2,0.4,0.5,0.5,0.8c0.1,0.3,0.2,0.6,0.3,1c0,0.3,0,0.5,0,0.8c0,0.1,0,0.2,0,0.3
		c-0.1,0.3-0.2,0.7-0.3,1c-0.4,0.7-0.8,1.2-1.4,1.7c-0.6,0.4-1.3,0.7-2.1,0.8c-0.3,0.1-0.7,0-1.1,0c-0.4,0-0.7-0.1-1.1-0.3
		c-0.5-0.2-0.8-0.5-1-0.8c-0.2-0.3-0.3-0.5-0.5-0.8c-0.1-0.3-0.3-0.6-0.4-0.9C41.1,637.3,41,636.3,41.4,635.3z"/>
	<path class="st0" d="M22.5,632.4c0.1-0.8,0.3-1.3,0.7-1.7c0.6-0.7,1.4-1.2,2.4-1.2c0.6,0,1,0,1.5,0.2c0.5,0.2,1,0.6,1.3,1
		c0.3,0.3,0.5,0.8,0.6,1.2c0.1,0.5,0.2,0.9,0.2,1.3c0,0.5,0,0.9-0.1,1.4c0,0.1-0.1,0.3-0.1,0.4c-0.1,0.4-0.1,0.6-0.2,0.8
		c-0.2,0.5-0.6,0.9-1.1,1.1c-0.9,0.4-2,0.3-2.8-0.1c-0.8-0.4-1.5-1-2-1.8c-0.3-0.5-0.4-0.9-0.5-1.4
		C22.4,633.2,22.4,632.8,22.5,632.4z"/>
	<path class="st0" d="M5.6,628.7c-0.1-0.2-0.1-0.4-0.1-0.5c0-0.2,0-0.3,0-0.5c0-0.2,0-0.3,0-0.5c0.1-0.5,0.3-0.9,0.6-1.3
		c0.2-0.3,0.5-0.5,0.8-0.6c0.3-0.1,0.7-0.2,1-0.1c0.7,0.2,1.3,0.4,1.9,0.9c0.5,0.4,0.8,0.9,1.1,1.4c0.1,0.1,0.2,0.2,0.3,0.3
		c0.3,0.4,0.4,1,0.4,1.5c0,0.1-0.1,0.3-0.1,0.4c0,0.5-0.1,1.1-0.3,1.6c-0.1,0.3-0.3,0.6-0.5,0.9c-0.4,0.5-1.1,0.9-1.8,0.9
		c-0.8,0-1.7-0.2-2.4-0.8c-0.6-0.6-1.2-1.4-1.2-2.3C5.4,629.5,5.5,629.1,5.6,628.7z"/>
	<path class="st0" d="M101,724c0.3-0.7,0.8-1.3,1.4-1.8c0.2-0.2,0.4-0.3,0.6-0.4c0.3-0.3,0.7-0.5,1.1-0.5l0.5,0
		c0.2,0,0.4,0.1,0.6,0.2c0.3,0.1,0.5,0.2,0.6,0.3c0.2,0.1,0.3,0.2,0.4,0.3c0.2,0.2,0.4,0.4,0.5,0.6c0.1,0.2,0.3,0.5,0.4,0.7
		c0.2,0.5,0.2,0.9,0.2,1.4c0.1,0.4,0,0.7,0,1.1c0,0.3-0.1,0.7-0.2,1c-0.1,0.3-0.3,0.5-0.5,0.7c-0.3,0.3-0.5,0.4-0.7,0.4
		c-0.4,0.1-0.6,0.2-0.9,0.2c-0.2,0-0.5,0.1-0.7,0.1c-0.4,0-0.9,0-1.3,0c-0.4-0.1-0.8-0.2-1.3-0.3c-0.3-0.1-0.6-0.4-0.8-0.6
		c-0.2-0.3-0.3-0.6-0.4-1C100.6,725.5,100.7,724.7,101,724z"/>
	<path class="st0" d="M60.6,714.5l31,5c2.5,0.4,2,4.3-0.6,3.9c-10.3-1.7-20.7-3.4-31-5C57.5,718,58.1,714,60.6,714.5z"/>
	<path class="st0" d="M78.4,732.8c0.2-1.1,1.1-1.8,2.2-1.7c3.3,0.4,6.6,0.8,10,1.2c1,0.1,1.9,1.2,1.7,2.2c-0.2,1.1-1.1,1.8-2.2,1.7
		c-3.3-0.4-6.6-0.8-10-1.2C79.1,734.9,78.2,733.8,78.4,732.8z"/>
	<path class="st0" d="M55.4,730.8c0.2-1.1,1.1-1.8,2.2-1.7l11,1.2c1,0.1,1.9,1.2,1.7,2.2c-0.2,1.1-1.1,1.8-2.2,1.7
		c-3.7-0.4-7.3-0.8-11-1.2C56.1,733,55.2,731.9,55.4,730.8z"/>
	<path class="st0" d="M48.7,740.2c13.6,3.4,27.3,6.3,41.1,8.6c2.5,0.4,2,4.3-0.6,3.9c-13.8-2.3-27.5-5.2-41.1-8.6
		C45.6,743.5,46.2,739.6,48.7,740.2z"/>
	<path class="st5" d="M108,408.8c0.9-0.7,2.1-0.4,2.8,0.4c3.5,4.2,6.2,9,7.8,14.2c0.3,1-0.1,2.2-1.1,2.6c-0.9,0.4-2.2-0.1-2.6-1.1
		c-1.5-5-3.9-9.3-7.3-13.3C106.9,410.8,107.2,409.4,108,408.8z"/>
	<path class="st5" d="M88.1,417.6c7.8,3,14.5,8.4,19.3,15.2c1.5,2.1-1.7,4.5-3.2,2.4c-4.4-6.3-10.5-11.1-17.7-13.9
		C84.2,420.3,85.7,416.6,88.1,417.6z"/>
	<path class="st5" d="M72.3,432c7.5,3,15.1,6,22.6,9c2.4,0.9,0.8,4.6-1.5,3.6c-7.5-3-15.1-6-22.6-9C68.4,434.7,70,431.1,72.3,432z"
		/>
	<path class="st0" d="M320.6,807c0.7-0.9,1.9-0.9,2.8-0.4c4.9,3.3,10.8,4.9,16.6,4.5c1.1-0.1,2.1,0.6,2.2,1.7c0.1,1-0.7,2.1-1.7,2.2
		c-6.9,0.4-13.7-1.5-19.5-5.3C320.1,809.2,320,807.8,320.6,807z"/>
	<path class="st0" d="M68.6,572c1,11.3,2,22.7,3,34c0.2,2.5-3.7,3-3.9,0.4c-1-11.3-2-22.7-3-34C64.4,569.9,68.3,569.4,68.6,572z"/>
</g>
<g>
	<path class="st6" d="M1536,629.6c2.5,5.6,7.2,9.9,12.2,13.3c5.2,3.5,10.8,6.6,16.6,9.2c23.4,10.8,49.5,14.4,75.1,13
		c12.9-0.7,25.7-2.7,38.3-5.7c13.2-3.2,26.2-7.4,37.7-14.8c5.5-3.6,10.6-8,16.5-11c5.3-2.7,11.1-3.4,16.7-5.5
		c5.4-2,9.7-5.8,11.3-11.5c1.6-5.7,0.6-11.8-0.5-17.5c0-0.2-0.1-0.4-0.2-0.5c3.5-5.2,6.3-10.9,8-16.9c3.2-11.6,1.4-24.7-7.1-33.7
		c-4.1-4.3-9-6.5-14.7-8.2c-2.7-0.8-5.5-1.6-7.7-3.3c-2.1-1.6-3.3-3.8-3.9-6.3c-1.2-5.2-0.3-10.7-0.7-16c-0.4-5.2-2.3-10.2-6.5-13.5
		c-8.3-6.4-20.2-5.1-27.8-12.6c-4-4-6.6-9.3-9.1-14.2c-2.7-5.2-5.5-10.1-9.2-14.7c-7.4-9.1-17.1-16.2-27.8-20.9
		c-10.6-4.6-22.4-6.6-33.9-5.6c-11.4,1-22.5,5-32.2,11.2c-9.7,6.2-17.8,14.6-23.6,24.6c-3.3,5.8-5.8,12-7.1,18.6
		c-1.4,7.3-0.8,14.8-0.1,22.2c1.4,15.2,1.1,30.3,0.4,45.6c-0.3,7.1-0.2,14.5-2.7,21.2c-2.4,6.4-6.8,11.8-10.4,17.5
		C1536.7,603.9,1530.5,617.5,1536,629.6z"/>
	<path class="st3" d="M1684.7,464.2c3.1,6.3,6.5,12.7,11.3,17.9c2.2,2.4,4.8,4.5,7.8,5.9c3.7,1.8,7.7,2.2,11.7,2.5
		c4.1,0.3,8.2,0.7,12,2.2c2.9,1.2,5.7,2.9,8,5c4.8,4.3,8.2,10,9.6,16.3c0.7,3.2,0.9,6.6,0.5,9.9c-0.5,3.4-2,6.5-2.4,9.9
		c-0.2,1.4-0.2,3,0.7,4.2c1.2,1.5,3.3,1.7,5.1,2.1c3.3,0.7,6.6,1.9,9.6,3.4c12.1,6.3,21.5,18.9,21.3,32.9
		c-0.2,15.1-11.5,29.7-26.8,32c-2.6,0.4-3.1-3.7-0.5-4.1c12.9-1.9,22.4-14.2,23.2-26.8c0.8-13.4-8.7-25.8-20.5-31.1
		c-3.1-1.4-6.2-2-9.4-2.9c-3.5-0.9-6.2-3.2-6.7-6.9c-0.5-3.4,0.8-6.8,1.8-10c0.9-2.9,1.1-6,0.8-9c-0.7-6-3.6-11.8-8-16
		c-2.3-2.2-4.9-3.9-7.8-5.1c-3.5-1.4-7.3-1.6-11-1.9c-4.4-0.3-8.7-0.9-12.7-2.8c-3.4-1.6-6.4-4-9-6.7c-5.3-5.6-8.9-12.6-12.3-19.4
		C1679.8,463.3,1683.6,461.8,1684.7,464.2z"/>
	<path class="st0" d="M1562.5,580.5c10.5-1.2,21.1,0.1,31,3.6c0.8-11,1.1-22.1,0.9-33.2c-0.1-5.9-0.4-11.9-0.8-17.8
		c-0.1-1,0.1-2.5-1-2.9c-1-0.3-2.3-0.1-3.3-0.1c-2.3-0.1-4.6-0.7-6.8-1.5c-4.9-1.8-9.1-5.2-12-9.6c-0.8-1.2-0.2-2.4,0.7-3
		c-0.1-0.2-0.1-0.4-0.2-0.7c-0.8-3-0.9-6.4,0.4-9.2c1.5-3.3,4.7-4.6,8.2-3.8c3.2,0.7,6.3,3,9.7,2.2c3.7-0.8,6.6-4.1,9.3-6.5
		c6.8-6.3,13.6-12.6,20.3-18.8c4.9-4.6,9.9-9.2,14.8-13.7c2.4-2.7,5.1-5.2,8-7.4c0.3-0.2,0.6-0.4,1-0.4c0.1-0.3,0.2-0.5,0.3-0.7
		c0.1-0.2,0.2-0.4,0.3-0.7c0.6-1.7,2.6-1.5,3.5-0.4c0.3,0,0.5,0.1,0.8,0.1c7.5,0.3,13.6,5.1,17.8,11.2c1,1,2,2,2.9,3.1
		c2.8,3.5,4.8,7.7,6.2,11.9c1.3,3.9,2.2,8,2.9,12.1c0.7,0.3,1.3,1,1.2,2c-0.3,8.1,2.5,15.9,2.1,24c-0.2,4-1.3,7.7-2.9,11.3
		c-0.6,4-1.6,8.1-3.9,11.3c-3,4.1-8.1,6.5-12.6,8.5c-4.3,1.9-8.9,3.1-13.6,3.9c0.1,4.5,0.5,8.9,0.7,13.3c0.2,3.4,0.4,6.8,0.6,10.3
		c14.7-1.6,29.2-4.6,43.3-9.1c1.6-0.8,3.2-1.3,5-1.6c1.7-0.3,2.6,1.6,2.1,2.8c0.2,0.1,0.4,0.2,0.5,0.3c1.4,0.9-2.8,3.8-4.1,4.3
		c-4.3,1.9-3.8,5.1-7.4,8.2c-3.7,3.2-6.7,4.3-10.1,7.7c-6.7,6.8-21.6,8.8-30.6,9.8c-19.6,2.2-35.9,1-54.8-4.4
		c-10.8-3.1-21.2-7.4-30.9-12.8C1560.2,583.5,1560.3,580.8,1562.5,580.5z"/>
	<path class="st0" d="M1814.8,506.7c4,8.5,8.7,16.8,12.7,25.3c8,16.8,9.4,35.5,8.4,53.8c-0.6,9.8-1.8,19.5-3,29.2
		c-0.5,4.1-1.8,9.1,0.5,12.9c1.9,3,5.5,4.2,8.8,5.1c9.2,2.4,18.5,4.8,27.9,6c4.7,0.6,9.4,0.9,14.1,0.9c4.3,0,8.5-0.1,12.7,0.7
		c0.7,0.6,1.8,0.7,2.6,0.2c0.9-0.4,1.3-1.5,1-2.5c2-14.7,2.3-29.6,0.9-44.3c5.5-4.9,10.1-10.7,13.6-17.2c3.4-6.5,5.3-13.5,7.4-20.4
		c2-6.4,4.4-13.2,9.4-17.9c3-2.9,6.8-4.6,10.4-6.6c3.9-2.2,7.6-4.7,11.2-7.5c2.9-2.2,6.7-4.8,7.6-8.6c0.5-2.1-0.1-4.4-1.6-5.8
		c-0.2-0.4-0.5-0.7-1-0.9c-4.3-1.8-8.8-0.4-12.9,1.3c-4.3,1.9-8.4,4.1-12.4,6.5c-3.6,2.1-7.2,4.3-10.8,6.4c-1,0.6-2.1,1.2-3.2,1.8
		c-0.4,0.2-0.7,0.4-1.1,0.6c-0.1,0.1-0.9,0.3-1,0.6c-0.3-0.6-0.3-2.2-0.4-2.6c-0.1-0.9,0-1.8,0.1-2.7c0.5-4.2,2.2-8,3.9-11.8
		c1.7-4,3.3-8.1,4.7-12.2c1.4-4.1,2.5-8.3,3.5-12.5c0.9-3.9,2.4-8.5,1.3-12.5c-0.9-3.2-3.6-5.8-7.1-5.6c-3,0.1-5,1.9-7.2,3.6
		c-0.6-5.8-4.6-11.1-11.2-10.5c-4.1,0.4-6.3,3.5-7.8,7c-1.8,4.2-2.8,8.7-3.9,13.1c-1.9,8.2-4.3,16.2-7.3,24.1
		c-0.7,1.9-1.5,3.9-2.3,5.8c-0.4,0.9-1.1,2.6-2.3,2.8c-3.7,0.6-2.8-8.2-2.8-10.1c-0.1-4.1-0.3-8.3,0-12.4c0.3-4.3,1.6-8.4,2.5-12.6
		c0.9-4,1.1-8,1-12.1c0-3.5,0.2-7.5-2.7-10c-2.1-1.8-5-2.2-7.6-1.6c-3.3,0.8-5.6,3.2-7.1,6.1c-3.6,6.9-3.2,15.6-3.5,23.2
		c-0.2,4.1-0.5,8.2-1.2,12.2c-0.8,4.3-1.9,8.6-2.9,12.8c-1.2,5.1-2.4,10.2-3.6,15.3c-5.3-3.5-9-9.3-12.8-14.3
		c-2.8-3.7-6-7.2-9.4-10.5c-3.2-3-7-6.7-11.5-7.6c-3.6-0.8-7.2,1.2-7.9,5C1811,499.5,1813.2,503.3,1814.8,506.7z"/>
	<path class="st4" d="M1524.7,631.2c8.7,27.8,17.6,55.6,26.5,83.4c2.2,6.9,4.3,13.7,6.5,20.6c1.7,5.4,3.9,10.9,8,14.9
		c8.9,8.7,23.4,5.7,34.5,5.3c7.2-0.3,14.5-0.4,21.7-0.2c7.2,0.2,14.5,0.7,21.7,1c6.7,0.2,13.3-0.1,19.8-1.8c6-1.5,11.6-3.9,17-6.9
		c11.3-6.2,21.1-14.5,30.9-22.7c5-4.2,10.1-8.4,15.4-12.3c5.2-3.8,10.7-7.1,16.5-10.1c5,3.7,10,7.3,15.1,10.8
		c18.4,12.6,37.6,23.9,57.5,33.9c0.7,0.4,1.4,0.2,1.9-0.1c6.7,2.9,13.4,5.6,20.4,7.8c14.5,4.5,30.2,6.3,44.9,1.7
		c12-3.7,25.9-13.8,24.1-28c0-0.3-0.1-0.5-0.2-0.8c-0.5-9.3-0.9-18.7-1.2-28c-0.7-20-1-40.1-1-60.2c0-1.4,0-2.7,0-4.1
		c-1.4-0.2-2.7-0.4-4.1-0.6c-2.3-0.3-4.5-0.7-6.8-1c-20-3.3-39.6-8.1-58.8-14.3c-1.3-0.4-2.6-0.9-3.9-1.3c-0.1,1.4-0.3,2.7-0.5,4.1
		c-0.8,6.8-1.7,13.6-2.6,20.4c-0.6,4.8-1,8.6-1.4,11.9c-16.6-17.7-38.8-41.4-51.9-56.1c-23-25.7-40.6-36.3-58.8-35.2
		c-2.2,0.1-5,0.5-8.3,1c-0.8,0.1-1.6,0.3-2.4,0.4c-1.1,0.2-2.3,0.4-3.5,0.6c-0.8,1.4-1.9,3.1-2.9,4.7c-1.8,2.7-3.6,5.4-4.8,6.8
		c-4.1,4.8-8.9,8.9-14.2,12.3c-21.8,14.2-49.2,14.8-73.8,9.1c-13-3-25.6-7.9-37.3-14.3c-0.6-0.3-1.5-0.9-2.6-1.7
		c-1.7-1.1-3.8-2.6-5.5-3.8c-1.7,0.1-3.3,0.3-4.8,0.6c-0.4,0.1-0.7,0.1-1.1,0.2c0.3,0.2,0.6,0.4,0.9,0.6c-5.4,0.7-10.4,3.8-15,6.4
		c-4.8,2.7-9.5,5.8-13.2,10c-1.8,2-3.3,4.3-4.3,6.7c-1.2,2.8-1.9,5.8-2.1,8.9C1520.8,618.4,1522.7,624.9,1524.7,631.2z"/>
	<path class="st0" d="M1646.5,556.7l1.7,26.2l2.4-0.7c0.3-0.1,27.4-7.9,48.2-12.2c1-1.6,2.1-3.3,2.9-4.7c-0.5,0.1-1,0.2-1.5,0.3
		c-17.7,3.5-40.9,9.9-48.3,12l-1.4-21.2L1646.5,556.7z"/>
	<path class="st3" d="M1609.7,541.9c10.2,5.9,21.1,11.4,33,12.4c10.3,0.8,21.5-2.1,28.4-10.2c7.5-8.8,9.1-20.9,8.2-32.1
		c-0.5-6.3-1.7-12.6-2.9-18.8c-1.2-5.7-2.7-11.3-5-16.6c-4.6-10.4-14.2-20.3-26.4-20c-2.6,0.1-3.1-4-0.5-4.1
		c11.4-0.4,21.6,6.9,27.4,16.4c6.7,10.9,9.2,24.4,10.9,37c1.7,12.5,1.3,25.7-5.5,36.8c-6.2,10.1-17.3,15.3-28.9,15.8
		c-14.5,0.6-27.9-5.7-40.2-12.8C1605.9,544.4,1607.5,540.6,1609.7,541.9z"/>
	<path class="st0" d="M1592.4,532.1c0.1-2.6,4.1-2,4,0.6c-0.6,16.7-0.8,33.3-0.5,50c0.1,2.6-4,3.1-4.1,0.5
		C1591.6,566.1,1591.8,549.1,1592.4,532.1z"/>
	<path class="st0" d="M1593.9,585.4l1.1-3.9c-0.6-0.2-15.4-4.2-32.5-3.1c-0.6,0-1.3,0.1-1.9,0.1c1.7,1.2,3.8,2.7,5.5,3.8
		C1581.1,581.9,1593.8,585.4,1593.9,585.4z"/>
	<path class="st3" d="M1572.6,503.6c3.7-3.1,8.9-3.9,13.4-2.2c5.5,2,9.2,7.3,10.5,12.8c0.3,1.1-0.8,2.1-1.8,2.3
		c-1.2,0.1-2-0.7-2.3-1.8c-1.6-7-9.6-13.1-16.4-8.5c-7.5,5.1-2,16.1,3.8,20.1c4.3,2.9,9.6,3.5,14.6,2.5c2.6-0.5,3,3.5,0.5,4.1
		c-11,2.3-22.9-3.8-25.8-15C1567.6,512.6,1568.3,507.2,1572.6,503.6z"/>
	<path class="st3" d="M1578,511.1c0.7-0.9,2-1,2.9-0.4c3.4,2.6,6.9,5.2,10.3,7.8c0.9,0.6,1.1,2,0.4,2.9c-0.7,0.9-2,1-2.9,0.4
		c-3.4-2.6-6.9-5.2-10.3-7.8C1577.5,513.4,1577.3,512,1578,511.1z"/>
	<path class="st3" d="M1590.4,502.8c19.8-13.6,36.1-31.4,52.1-49.2c1.8-1.9,5,0.6,3.2,2.5c-16.3,18-32.7,36.2-52.9,49.9
		C1590.6,507.5,1588.2,504.2,1590.4,502.8z"/>
	<path class="st3" d="M1642.7,484.5c2.1-9.2,10.9-16.5,20.6-13.8c1.1,0.3,1.5,1.7,1.1,2.7c-0.5,1.1-1.6,1.4-2.7,1.1
		c-3.5-1-7.3,0.4-10.1,2.6c-3.1,2.5-4.7,6.3-5.2,10.2c-1.2,9.2,3.6,17.7,8,25.4c1.3,2.3-2,4.7-3.3,2.4
		C1645.9,505.9,1640.2,495.5,1642.7,484.5z"/>
	<path class="st3" d="M1651.2,492.4c0.1-1.1,1.2-1.9,2.3-1.7c1.5,0.2,2.8,1.1,3.6,2.3c0.1,0.1,0.1,0.2,0.2,0.3
		c0.3,0.2,0.7,0.5,0.9,0.9c0.3,0.5,0.6,1.1,0.6,1.7c0,0.8-0.1,1.5-0.6,2.2c-0.5,0.7-1.3,1-2.1,1.2c-0.7,0.1-1.3,0-2-0.2
		c-1.2-0.4-2.2-1.4-2.6-2.5C1651,495.2,1651.1,493.7,1651.2,492.4z"/>
	<path class="st3" d="M1614.6,496.3c0.1-0.6,0.5-1.2,1-1.5c0.2-0.2,0.5-0.2,0.8-0.3c0.4,0,0.7,0,1,0.1c1.2,0.3,2.2,1.2,2.9,2.1
		c0.3,0.4,0.5,0.8,0.7,1.3c0.1,0.2,0.2,0.4,0.3,0.7c0.4,0.9,0.5,2,0.2,2.9c-0.1,0.4-0.2,0.7-0.4,1c-0.2,0.2-0.4,0.4-0.6,0.5
		c-0.6,0.3-1.2,0.3-1.8,0.1C1616,502.3,1614.2,499.2,1614.6,496.3z"/>
	<path class="st3" d="M1631.4,521.2c1.2,5.6,6,10.6,12,10.9c5.8,0.3,11.5-4,12.4-9.8c0.3-1.7-1.4-2.5-2.6-2.2
		c-6.6-0.7-13.3-1.1-19.9-1.1C1632.1,519,1631.2,520.3,1631.4,521.2z M1636.3,523.1c4.9,0.1,9.7,0.4,14.6,0.9
		c-1.4,2.5-4.3,4.3-7.2,4.1C1640.5,527.9,1637.8,525.8,1636.3,523.1z"/>
	<path class="st6" d="M1916.1,781.1c9,10.3,5.1,21.3-0.6,29.4c-5.6,8.1-144.8,53.7-154.9,56.6c-10.1,2.9-21.9,4.4-38.7-10.3
		c-16.8-14.7-51.6-42.7-61.2-52.2c-9.5-9.6-8.4-22.8,6.2-27.2c11.7-3.5,134.5-55.8,147.3-61.5c11.2-4.9,25.3-1.3,33.4,4.1
		C1855.2,725,1907.1,770.8,1916.1,781.1z"/>
	<path class="st4" d="M1725.5,846.3c0.1-0.4,0.2-0.8,0.4-1.2c0.2-0.4,0.5-0.6,0.9-0.8c0.5-0.2,0.9-0.3,1.4-0.2c0.3,0,0.7,0.2,1,0.3
		c0.6,0.4,1.2,0.9,1.5,1.6c0.1,0.2,0.1,0.3,0.2,0.5c0.1,0.1,0.2,0.2,0.2,0.4c0.7,1.3,1,2.9,0.9,4.4c0,0.1,0,0.2-0.1,0.3
		c0,0.2,0,0.3,0,0.5c0,0.2-0.1,0.4-0.1,0.6c-0.1,0.3-0.3,0.6-0.5,0.8c-0.1,0.1-0.3,0.3-0.4,0.4c-0.6,0.5-1.3,0.8-2.1,0.6
		c-0.9-0.2-1.6-0.9-2.1-1.8c-0.3-0.6-0.6-1.2-0.8-1.8C1725.5,849.4,1725.3,847.8,1725.5,846.3z"/>
	<path class="st4" d="M1712.2,836.4c0.2-0.4,0.4-0.7,0.8-1c0.6-0.5,1.4-0.7,2.1-0.6c0.3,0.1,0.6,0.1,0.8,0.3
		c0.2,0.1,0.4,0.3,0.6,0.4c0.6,0.6,0.8,1,1.1,1.6c0.1,0.2,0.1,0.4,0.2,0.7c0.4,0.7,0.6,1.4,0.7,2.2c0.1,0.9,0,1.8-0.2,2.7
		c-0.1,0.2-0.2,0.4-0.3,0.6c-0.2,0.3-0.4,0.5-0.6,0.6c-0.2,0.1-0.3,0.2-0.5,0.2c-0.3,0.1-0.5,0.1-0.8,0.1c-0.9-0.2-1.8-0.7-2.4-1.4
		c-0.3-0.4-0.7-0.8-0.9-1.3c-0.2-0.5-0.5-0.9-0.6-1.5c-0.2-0.8-0.3-1.5-0.2-2.3C1711.9,837.3,1712,836.8,1712.2,836.4z"/>
	<path class="st4" d="M1687.1,812.2c6.5,5.7,13,11.4,19.5,17.2c1.8,1.6,0.3,4.6-1.4,4.5c-0.4,0.2-1,0.2-1.5,0
		c-4.1-1.5-6.9-5.7-10.4-8.5c-3.3-2.6-9.4-5.2-9.5-10.9C1683.7,812.3,1685.6,810.8,1687.1,812.2z"/>
	<path class="st4" d="M1668,797.6c1.3-0.7,2.6,0,3.6,0.9c0.8,0.7,1.6,1.4,2.3,2.1c1.8,1.6,3.5,3.4,5.2,5.1c0.2,0.3,0.4,0.6,0.6,0.9
		c1,0.6,1.8,2.1,1.2,3.3c-0.5,0.9-1,1.6-1.9,1.8c-0.6,0.1-1.3-0.1-1.8-0.4c-1-0.6-1.8-1.5-2.7-2.2c-1.7-1.4-3.3-2.9-5-4.3
		c-0.8-0.7-1.9-1.4-2.6-2.4C1665.8,800.9,1666.4,798.5,1668,797.6z"/>
	<path class="st4" d="M1783,754.4c2-2.6-10.1-12.3-12.8-12.1c-2.7,0.2-49.2,16.6-49.5,18.6c-0.3,2,10,12.6,12.8,12.7
		C1736.3,773.7,1781,757,1783,754.4z"/>
	<path class="st0" d="M1895.8,788.3c-15.6,6.7-126.2,45.4-135.4,49.7c-9.2,4.2-18.6,4.2-28.4-4.2c-11.1-9.6-24.6-20.6-31.9-26.9
		c-8.8-7.7-9-13.2,10.6-18.5c11.3-3,124.8-45.4,129.1-45.4c4.3,0,48.9,30.3,53.2,33.7C1897.2,779.9,1895.8,788.3,1895.8,788.3z"/>
	<path class="st0" d="M1579.5,810.3c1.5-4.2,2.6-8.4,3.3-12.8c0.7-4.5,0.7-8.9,1-13.4c0.3-4.4,1.5-8.6,2.9-12.8
		c1.4-4.4,2.9-8.7,4.3-13.1c1.5-4.5,3-8.9,4.4-13.4c1.2-3.7,2.3-7.2,6.6-7.9c3.7-0.6,7.8,0.6,11.4,1.1c4.6,0.6,9.3,1.2,13.9,1.7
		c5.9,0.7,11.9,1.2,17.8,1.7c10.1-1.8,20.4-1.7,30.6-1.3c0.2-0.4,0.5-0.7,0.9-0.9c2.2-1.2,3.7-3.4,5.3-5.3c1.8-2.1,3.8-3.9,5.9-5.6
		c2.1-1.7,4.3-3.3,6.2-5.2c1.9-1.9,3.6-4.1,5.6-5.9c2.1-1.9,4.5-3.4,6.8-5.1c0.2-0.1,0.3-0.3,0.5-0.4c0.4-0.4,0.7-0.7,1.1-1.1
		c4.5-4.5,9-8.9,14.1-12.7c0.3-0.2,0.7-0.5,1-0.7c0.1-0.2,0.2-0.4,0.3-0.6c1.9-2.1,4.8-3.6,7.6-4.2c0.2,0,0.4,0,0.6,0
		c2.5-1.2,5-2.2,7.6-3c0.3-0.1,0.6-0.2,0.9-0.3c4.9-2,9.9-3.6,15.1-4.2c2.3-0.2,4.5-0.3,6.8-0.2c2.1,0,4.1,0.1,6.2,0.5
		c3.9,0.4,8.6,0.4,11.8,2.7c2.7,1.9,4.1,5.1,5.1,8.1c0.2,0.6,0.3,1.2,0.4,1.8c0.6,1.5,1.1,3,1.3,4.6c0.1,1-0.7,2.2-1.8,2.3
		c-0.8,0-1.6,0.1-2.3,0c-3.5,1.4-8,0.1-11.4-0.7c-4.1-1-8.1-2.7-12.4-3.1c-6.5-0.7-12.3,1.4-18,4.1c-0.2,0.2-0.4,0.5-0.6,0.8
		c-0.2,0.2-0.4,0.4-0.6,0.6c0.5,0.6,1.4,1.2,2.3,1.6c1.3,0.3,2.6,0.8,3.7,1.4c4.6,2.4,7.3,6.6,9.7,11c2.5,4.6,4.6,9.4,6.2,14.3
		c0.5,1.7,1.1,3.4,1.4,5.1c0.6,1.2,1.1,2.4,1.3,3.7c0.7,3.2,0.1,7-2.2,9.4c-0.4,0.4-0.9,0.7-1.4,0.7c0,0.2,0,0.3,0,0.5
		c0.2,1-1,0.7-2.2,0.4c-1.9,1.1-4.1,1.6-6.3,1c0.1,0.4,0.2,0.8,0.2,1.3c0.4,1.8,0.1,3.4-0.8,4.7c-1.5,3-4.8,4.3-8.1,3.2
		c-1-0.3-1.9-0.8-2.8-1.5c-1.1-0.6-2.2-1.4-2.9-2.6c-0.2-0.3-0.3-0.5-0.3-0.8c-0.7-0.5-1.4-1.1-2-1.8c-0.7,0-1.3-0.4-1.6-1.3
		c-0.1-0.3-0.2-0.6-0.3-0.9c-1.3-1.7-2.4-3.6-3.2-5.6c-1.2-2.7-2.1-6.1-4.4-8.2c-0.6,0.4-1.4,0.4-2.2-0.1c-1.2-0.9-2.5-1.4-3.9-1.7
		c-0.2,0.2-0.5,0.3-0.8,0.4c-4.3,1-8.1,3.4-11.1,6.5c3.5,2,6.8,4.2,10,6.6c4,2.2,7.7,5,10.6,8.6c2.3,2.8,3.9,6.2,4.8,9.7
		c0.1,0.4,0.2,1,0.3,1.6c0.1,0.2,0.2,0.4,0.2,0.6c0.3,0.8,0.6,1.7,0.9,2.6c0.5,1.2,0.9,2.4,0.6,3.7c-0.1,3.8-3.8,5.1-7,4.5
		c-0.9-0.2-1.9-0.5-2.8-0.9c-0.6,0.2-1.3,0.2-1.9-0.3c-1.5-1.3-3.1-2.6-4.6-3.9c-0.1-0.1-0.3-0.2-0.4-0.3c-2.9-2.3-5.6-4.8-8.5-7.1
		c-1.4-1.1-2.9-2.1-4.5-2.9c-1.5-0.1-2.8-0.2-4.1-0.4c-0.4,0.6-0.9,1.2-1.3,1.9c-1,2.2-2,4.3-3.2,6.5c0.6,0.7,0.7,1.6,0,2.4
		c-1.7,2-2.2,4.4-2.8,6.9c-0.6,2.5-1.3,4.9-2.7,7.1c-2.6,4.1-7.1,7-11.6,8.5c-5.7,1.9-11.8,2.1-17.8,2.3c-1.8,0.1-3.7,0.1-5.5,0.2
		c-3.1,3.6-8.1,2.9-12.4,3.1c-3,0.2-5.8,1.2-8.7,1.9c-3,0.8-5.9,1.2-9,1.1c-6.1-0.1-12.1-0.4-18.1-0.3c-3.2,3-7.8,2.8-11.8,2.8
		c-5.3,0-10.6-0.1-15.8-0.4C1579.7,813,1579.1,811.4,1579.5,810.3z"/>
	<path class="st3" d="M1691.7,766.9c6-3.3,12.8-1.4,18,2.6c5.4,4.1,9.3,10.3,15.7,13c2.5,1.1,6.8,2,8.6-0.8c1.9-2.9,0.4-6.6-1-9.5
		c-2.7-5.5-6.6-10.6-11.1-14.7c-2.6-2.3-5.3-4.4-8.3-6.1c-1.6-0.9-3.2-1.7-4.8-2.4c-1.4-0.6-4-2.1-5.5-1.6c-2.5,0.8-4-3-1.5-3.8
		c3.4-1.1,7.4,1.1,10.4,2.6c3.1,1.5,6,3.3,8.8,5.4c5.5,4.2,10.3,9.5,13.8,15.5c3.2,5.4,7.2,14.6,0.3,19.1
		c-6.5,4.2-14.8-1.2-19.5-5.6c-3.2-3-6.1-6.5-9.8-8.9c-3.3-2.2-8-3.6-11.6-1.5c-1,0.5-2.1,0.5-2.9-0.4
		C1690.7,769,1690.7,767.5,1691.7,766.9z"/>
	<path class="st3" d="M1747.1,743.2c-2.8-7.5-6.5-17.1-14.2-20.9c-7.1-3.5-16.5-1.7-21.6,4.4c-1.7,2-4.9-0.5-3.2-2.5
		c5.1-6.2,13.6-8.9,21.4-7.3c9.5,1.9,14.8,9.8,18.6,18.1c2.2,4.9,4.1,10,5.5,15.1c1.2,4.4,3.5,10.2-0.1,14c-2.7,2.9-7,3.7-10.8,2.8
		c-4.2-1-7.5-3.6-10-7.1c-3-4.3-4.5-9.5-7.5-13.7c-1.5-2.1-3.5-3.6-6.2-3.1c-2.8,0.6-5.2,2.7-7.3,4.5c-2,1.7-4.4-1.6-2.4-3.3
		c3.3-2.8,7.3-5.9,12-5.4c4.1,0.5,6.9,3.8,8.7,7.2c3.5,6.4,6.1,16,14.6,17.1c1.6,0.2,3.3,0,4.7-0.8c2-1.2,2.2-2.9,1.8-5.1
		C1750.2,752.5,1748.8,747.7,1747.1,743.2z"/>
	<path class="st3" d="M1716.9,709.6c9.6-7.8,23.7-7.9,33.2,0c5.1,4.2,8,10.2,10.5,16.2c1.4,3.3,2.6,6.6,3.8,9.9
		c1.1,3.1,2.2,6.3,2.2,9.6c0,6.8-5.1,12.8-12.3,11.3c-2.6-0.5-2-4.6,0.6-4c5.8,1.2,8.2-4.3,7.5-9.2c-0.4-2.8-1.5-5.4-2.5-8
		c-1-2.7-2-5.5-3.2-8.1c-2.1-4.9-4.4-10.1-8.4-13.8c-3.6-3.2-8.1-5.3-12.8-5.7c-5.9-0.6-11.7,1.4-16.3,5
		C1717.3,714.5,1714.8,711.3,1716.9,709.6z"/>
	<path class="st3" d="M1680.3,739.2l33.7-31.9c4.6-4.3,9.1-9,14.5-12.3c5.2-3.2,11.2-4.7,17.1-5.8c2.3-0.5,4.7-0.9,7.1-1.4
		c1.4-0.2,2.8-0.4,4.2-0.6c7-0.9,14.2-0.9,20.6,2c4.2,1.9,9.7,6.3,8.4,11.6c-1.6,6.1-9.5,3-13.5,1.8c-5.8-1.7-12.3-3.3-18.5-3.1
		c-1.6,0.1-3.1,0.2-4.7,0.6c-3.6,0.7-7,2.3-10,4.9c-1.9,1.7,0.5,5,2.4,3.3c5.2-4.6,12.4-5.3,19-4.3c4,0.6,7.8,1.7,11.6,2.9
		c3.1,0.9,6.3,2,9.5,1.7c5.7-0.5,9.2-6,8.1-11.4c-1.2-5.7-6.4-9.8-11.5-12c-6.6-2.8-14-2.9-21.2-2c-1.4,0.1-2.7,0.4-4.1,0.6
		c-3.1,0.5-6.1,1.1-9,1.7c-6.4,1.3-12.8,3.2-18.4,6.7c-5.8,3.6-10.5,8.7-15.4,13.4c-10.7,10.2-21.5,20.3-32.2,30.5
		C1676,737.8,1678.4,741,1680.3,739.2z"/>
	<path class="st3" d="M1811.1,501.5c0.7,5,2.9,9.5,5.3,13.8c5.1,9.2,10.2,18.4,13.4,28.4c3.3,10.3,4.5,21.2,4.6,32
		c0.1,10.9-1,21.9-2.2,32.8c-0.3,3.2-0.7,6.5-1.1,9.7c1.3,0.4,2.6,0.9,3.9,1.3c0.6-4.8,1.1-9.7,1.6-14.5c1.1-10.4,1.9-20.9,1.8-31.4
		c-0.2-10.3-1.4-20.7-4.5-30.5c-3-9.7-7.7-18.7-12.6-27.5c-2.3-4.1-4.7-8.3-5.8-13c-0.8-3.7-1.3-10.4,4.2-9.9
		c9,0.8,14.4,10.3,18.5,17.2c2.4,4,4.8,7.9,8.1,11.2c2,2,4.3,3.7,6.6,5.4c1.3,0.9,2.5,1.8,3.8,2.8c0.3,0.2,0.6,0.5,0.9,0.7
		c7.3,5.9,11.4,14.4,15.4,22.7c1.1,2.4,4.9,0.9,3.8-1.5c-1-2.1-2-4.3-3.1-6.4c-2.2-4.2-4.6-8.4-7.6-12.1c-2.6-3.1-5.5-5.7-8.7-8.1
		c-0.7-0.5-1.4-1-2.1-1.6c-0.6-0.4-1.1-0.8-1.7-1.3c-3.3-2.6-6.3-5.4-8.7-9c-2.8-4-5-8.4-7.8-12.4c-2.6-3.6-5.7-7-9.5-9.3
		c-3.6-2.1-8.9-3.9-12.7-1.5C1810.8,492.1,1810.5,497.4,1811.1,501.5z"/>
	<path class="st3" d="M1852.9,526.6c1.3,0.9,2.5,1.8,3.8,2.8c0.2-1.5,0.4-3.1,0.7-4.6c0.9-6.4,1.7-12.8,2.6-19.3
		c1.4-11.5,2.7-23,3.9-34.5c0.5-4.5,1.2-9.9,4.6-13.3c2.3-2.3,6.5-3.7,9.4-1.8c3.9,2.5,2.4,9.5,2.1,13.3c-0.4,5.7-1,11.5-1.7,17.1
		c-0.7,5.2-2,10.5-2.4,15.7c-0.3,4.1,0.3,8.3,3.7,11c2,1.7,4.5-1.6,2.5-3.2c-4-3.2-1.8-10.2-1.1-14.4c1.2-6.8,2-13.6,2.6-20.4
		c0.3-3.1,0.5-6.2,0.6-9.3c0.1-2.5,0.3-5-0.3-7.4c-1-4.4-4.6-7.3-9.1-7.4c-4.1-0.1-8.1,2-10.6,5.3c-3,4.1-3.9,9.2-4.5,14.1
		c-1.9,17.2-3.9,34.4-6.2,51.5C1853.3,523.5,1853.1,525.1,1852.9,526.6z"/>
	<path class="st3" d="M1880.1,510.7c3.5-8.1,6-16.5,8.6-24.8c2.5-8.1,5-16.6,9-24.1c1.7-3,4.1-5.9,7.8-6.3c3.6-0.4,7.1,1.9,8.9,5
		c4.4,7.6,0.9,17.1-1.6,24.7l-9.8,30.3c-0.8,2.5-4.6,0.9-3.8-1.6c2.6-8.1,5.2-16.1,7.8-24.2c1.3-3.9,2.6-7.8,3.7-11.8
		c1.1-3.8,1.9-7.8,1.3-11.7c-0.4-3-2.3-6.6-5.7-6.7c-3.3-0.1-4.9,3.7-6.1,6.2c-3.2,7-5.6,14.4-7.9,21.7c-2.6,8.4-5.2,16.8-8.6,24.8
		C1882.8,514.7,1879.1,513.1,1880.1,510.7z"/>
	<path class="st3" d="M1916.2,472.5c-1.1,2.4-4.8,0.8-3.8-1.6c1.9-4.2,6.1-7,10.8-6.8c5,0.3,8.9,4.1,10.1,8.9
		c1.3,5.5-0.4,11.2-2.3,16.3c-2.1,5.7-4.4,11.4-6.6,17c-2.4,6.2-5.1,12.5-6.2,19.1c-0.4,2.6-4.5,2-4-0.6c1.1-6.3,3.5-12.3,5.8-18.2
		c2.4-6.1,4.8-12.2,7.1-18.3c1.9-5,4.6-12.4,1-17.3C1924.9,466.7,1918.3,467.8,1916.2,472.5z"/>
	<path class="st3" d="M1915.9,525.2c6.9-4.1,13.7-8.3,20.6-12.4c3.3-2,6.5-4,9.8-5.8c2.8-1.5,6-2.8,9.3-2.5
		c6.1,0.5,9.1,6.6,7.8,12.2c-1.5,6.3-7.1,9.8-12.4,12.7c-7.4,4-14.4,8.6-21.1,13.7c-2.1,1.6-4.5-1.7-2.4-3.3
		c5.1-4,10.5-7.6,16.1-10.9c4.8-2.8,10.9-5.1,14.3-9.7c2.4-3.3,2.8-9.9-2.4-10.6c-2.8-0.4-5.8,1.1-8.2,2.5c-2.9,1.7-5.8,3.5-8.7,5.2
		c-6.8,4.1-13.6,8.2-20.3,12.2C1916.1,529.8,1913.6,526.6,1915.9,525.2z"/>
	<path class="st3" d="M1901.1,593.9c7.5-6.3,11.4-15.7,14.4-24.8c3.3-10.1,5.9-20.4,11.8-29.4c1.5-2.2,4.7,0.3,3.2,2.5
		c-11.4,17.2-10.2,41-26.9,55C1901.5,598.9,1899.1,595.6,1901.1,593.9z"/>
	<path class="st3" d="M1900.6,634.9c1.3,0.2,2.7,0.4,4.1,0.6c0-13.3,0.2-26.7,0.6-40c0.1-2.6-4-3-4.1-0.4
		c-0.2,9.9-0.4,19.8-0.5,29.8C1900.7,628.2,1900.6,631.5,1900.6,634.9z"/>
	<path class="st0" d="M1729,636.8c8.6,7.8,16.3,17.1,20.5,28c2.4,6,3.6,12.5,3.4,18.9c1.4-0.2,2.7-0.4,4.1-0.6c0-0.5,0-0.9,0-1.4
		c-0.2-11.8-4.8-23.1-11.5-32.7c-3.4-4.8-7.4-9.2-11.7-13.3c-1.1-1-2.2-2.1-3.3-3.1c-0.8-0.7-2.8-1.9-2.8-3c0-0.8,0.7-1.7,1-2.4
		c0.4-0.8,0.7-1.6,1.1-2.4c0.7-1.5,1.4-3,2.1-4.5c1.1-2.4-2.7-4-3.8-1.6c-0.8,1.8-1.7,3.6-2.5,5.4c-0.8,1.6-1.9,3.4-2.1,5.3
		C1723.1,632.7,1726.9,634.8,1729,636.8z"/>
	<path class="st4" d="M1469.5,784.9c14.3,25.8,49.1,30,83.6,32c3.1,0.2,6.7,0.3,10.8,0.3c4,0,8.5-0.1,13.4-0.3c0.2,0,0.4,0,0.7,0
		c1.2,0,2.4-0.1,3.5-0.1c0.4-1.4,0.7-2.7,1.1-4.1c6-23.7,11.6-51.5,20.4-73.3c0.5-1.3,1.1-2.7,1.7-4c-1.4-0.1-2.9-0.2-4.3-0.3
		c-11.9-1-23.7-2.2-35.5-3.7c5.7-20.7,11.4-41.3,17.1-62c0.2-0.2,0.3-0.4,0.5-0.7c3.8-7.9,5.4-16.6,5.3-25.4
		c-0.3-15.4-6.4-30.1-14.9-42.7c-2.1-3.1-4.4-6.2-6.7-9.1c-2.2-2.7-4.5-5.8-7.3-8c-2.4-1.9-5.1-2.6-7.9-2.3c1.6-0.6,3.2-1.1,4.9-1.3
		c-0.3-0.2-0.6-0.4-0.9-0.6c-5.5,0.9-10.7,2.4-15.3,4.4c-22.4,10-30.7,36.2-40.3,66.5c-3.7,11.6-7.5,23.6-12.3,35.6l-2.7,6.5
		C1468,732.2,1456.3,761.1,1469.5,784.9z"/>
	<path class="st3" d="M1602.9,739.2c25.4,1.9,50.9,2.6,76.3,2c2.6-0.1,2.1-4.1-0.5-4.1c-10.5,0.2-21,0.3-31.5,0.1
		c-14.2-0.3-28.5-0.9-42.7-2C1604,736.6,1603.4,737.9,1602.9,739.2z"/>
	<path class="st3" d="M1581.4,816.7c0.2,0,0.5,0,0.7,0c38.4-1.8,100.6-9,107-15.9c3.5-3.8,6.8-11.4,9.7-18.1
		c1.8-4.4,5.4-11.5,6.6-12.4c-0.1,0-1-2.8-1-2.8c-3.3-0.5-5.2,3.8-9.4,13.5c-2.7,6.4-5.8,13.7-8.9,17c-4.4,4.7-59.5,12.5-103.7,14.6
		C1582.2,813.9,1581.8,815.3,1581.4,816.7z"/>
	<path class="st6" d="M1941.7,653.8c19.7-5.7,34.1-8.4,29.2,11.4c-4.8,19.7-44,119.8-47.2,129.5c-3.3,9.6-11.9,14.1-30.5,19.8
		c-18.6,5.7-107.5,35.6-120.7,40.7c-13.1,5.1-21.8-0.8-17.1-22.7c4.7-21.9,34.6-93.2,40.2-109.6c5.6-16.6,11.2-25.1,40.2-33.7
		C1864.8,680.5,1922,659.5,1941.7,653.8z"/>
	<path class="st0" d="M1539.2,733.1c4.5,0.4,9,0.8,13.6,1.2c1.5,0.1,2.9,0.3,4.3,0.4c14.8,1.4,29.5,3,44.2,4.7
		c2.6,0.3,3.2-3.7,0.6-4c-14.3-1.7-28.7-3.2-43-4.6c-1.4-0.1-2.9-0.3-4.3-0.4c-4.9-0.5-9.9-0.9-14.8-1.3
		C1537.2,728.8,1536.6,732.8,1539.2,733.1z"/>
	<path class="st0" d="M1552.7,734.3c1.5,0.1,2.9,0.3,4.3,0.4c0.6-1.3,1.2-2.6,1.8-3.9c0.8-1.6,1.5-3.2,2.3-4.8
		c9.2-20,17.6-40.3,25.2-61c0.9-2.5-2.9-4.1-3.8-1.6c-2.1,5.8-4.4,11.7-6.7,17.5c-6.6,16.7-13.7,33.2-21.3,49.5
		C1554,731.7,1553.4,733,1552.7,734.3z"/>
	<path class="st0" d="M1822.6,654.2c0.4-2.6,4.4-2,4,0.6c-2,14.3-3.5,28.6-4.5,43c-0.2,2.6-4.2,2-4-0.6
		C1819.1,682.8,1820.6,668.5,1822.6,654.2z"/>
	<path class="st4" d="M1647,493.4c0,10.8,8.8,19.6,19.6,19.6s19.6-8.8,19.6-19.6c0-10.8-8.8-19.6-19.6-19.6S1647,482.6,1647,493.4z
		 M1651.1,493.4c0-8.5,6.9-15.5,15.5-15.5c8.5,0,15.5,6.9,15.5,15.5c0,8.5-6.9,15.5-15.5,15.5C1658,508.9,1651.1,501.9,1651.1,493.4
		z"/>
	<path class="st4" d="M1600.3,501.6c0,10.8,8.8,19.6,19.6,19.6c10.8,0,19.6-8.8,19.6-19.6c0-10.8-8.8-19.6-19.6-19.6
		C1609.1,482.1,1600.3,490.9,1600.3,501.6z M1604.4,501.6c0-8.5,6.9-15.5,15.5-15.5c8.5,0,15.5,6.9,15.5,15.5
		c0,8.5-6.9,15.5-15.5,15.5C1611.3,517.1,1604.4,510.2,1604.4,501.6z"/>
	<path class="st4" d="M1635.7,499.7c1.6-2,3.6-3.8,5.9-4.9c2.5-1.1,5.5-1.2,8-0.1c1,0.4,1.6,1.7,1.1,2.7c-0.5,1-1.6,1.5-2.7,1.1
		c-0.2-0.1-0.4-0.2-0.6-0.3c0,0-0.5-0.1-0.5-0.1c-0.3,0-0.5-0.1-0.8-0.1c-0.2,0-0.3,0-0.5,0c-0.3,0-0.5,0-0.8,0.1
		c-0.1,0-0.4,0.1-0.5,0.1c-0.5,0.1-0.9,0.3-1.4,0.5c-0.1,0-0.4,0.2-0.5,0.2c-0.2,0.1-0.4,0.2-0.5,0.3c-0.4,0.3-0.8,0.6-1.2,0.9
		c-0.2,0.1-0.3,0.3-0.5,0.4c0,0-0.3,0.3-0.4,0.4c-0.3,0.4-0.7,0.8-1,1.2c-0.7,0.8-2,1.1-2.9,0.4
		C1635.2,501.8,1635,500.6,1635.7,499.7z"/>
	<path class="st7" d="M1499.9,514.3c1.2-0.8,2.4-0.5,3.3,0.5c0.2,0.3,0.3,0.6,0.4,1c1,0.8,2.1,1.6,3.2,2.3c1.5,1.1,3,2.3,4.5,3.4
		c3.1,2.3,6.2,4.7,9.3,7c4,3,8.1,6.1,12.5,8.6c-3.8-7.2-8-14.2-12.5-20.9c-1.5-2.2,1.8-4.6,3.3-2.4c5.8,8.6,11,17.7,15.7,27
		c0.8,1.7-1.2,3.2-2.7,2.6c-7.2-2.6-13.2-7.4-19.3-11.9c-3.3-2.5-6.5-4.9-9.8-7.4c-1.6-1.2-3.2-2.4-4.8-3.6
		c-1.5-1.1-3.5-2.1-3.8-4.2C1499,515.5,1499.4,514.7,1499.9,514.3z"/>
	<path class="st8" d="M1434.3,460.2c1.9-3.8,5.5-5.8,9.6-6.4c5-0.7,10.3,0,15.3,0.2c10.8,0.4,21.6,0.9,32.4,1.5c11,0.6,22,1.3,33,2
		c4.2,0.3,9,0.4,12.3,3.4c3.1,2.8,3.9,7.1,4.4,11.1c0.7,5.9,1.1,11.9,1.3,17.9c0.2,5.7,0.4,11.6-0.1,17.3c-0.5,4.6-3,8.3-7.6,9.4
		c-4.2,1-8.7-0.1-12.7-1.5c-2.5-0.8-0.9-4.6,1.6-3.8c3.1,1,6.6,2,9.9,1.3c4-0.7,4.8-4.2,4.9-7.7c0.4-9.5,0-19.1-0.9-28.6
		c-0.4-3.7-0.3-8.4-2.6-11.6c-2.4-3.2-7-3.1-10.6-3.3c-9.8-0.7-19.5-1.3-29.3-1.8c-9.7-0.5-19.3-1-29-1.4c-4.9-0.2-9.9-0.4-14.8-0.6
		c-3.8-0.1-8.6-0.6-11.6,2.1c-2.4,2.1-2.9,5.5-2.8,8.5c0,4.1,0.9,8.1,1.5,12.1c0.7,4.8,1.5,9.6,2.2,14.5c0.6,3.9,0.8,8,2.3,11.7
		c1.8,4.6,5.8,5.9,10.4,6.4c5.2,0.6,10.5,1,15.7,1.2c10.9,0.5,21.9,0.3,32.8-0.6c2.6-0.2,3.1,3.8,0.5,4.1
		c-10.8,0.9-21.7,1.1-32.5,0.6c-5.3-0.2-10.7-0.6-16-1.2c-4.2-0.5-8.7-1.3-11.8-4.5c-3-3.1-3.9-7.5-4.6-11.6
		c-0.8-5.2-1.6-10.4-2.4-15.6c-0.7-4.8-1.7-9.5-2-14.3C1432.5,467.6,1432.6,463.6,1434.3,460.2z"/>
	<path class="st2" d="M1461.4,461.3c15.7,12.1,29.8,26.3,41.7,42.1c3.6-7.3,7.2-14.6,10.9-21.9c1.2-2.3,4.9-0.8,3.8,1.6
		c-4.1,8.3-8.3,16.7-12.4,25c-0.7,1.3-2.6,1.7-3.5,0.4c-12.1-16.6-26.6-31.4-42.9-44C1456.8,462.9,1459.3,459.7,1461.4,461.3z"/>
	<path class="st9" d="M1728.5,463.2c7.4-0.5,14.7-2.3,21.5-5.3c2.4-1.1,3.9,2.7,1.5,3.8c-7.1,3.1-14.8,5-22.6,5.5
		C1726.4,467.4,1725.9,463.4,1728.5,463.2z"/>
	<path class="st10" d="M1721.2,445.5c11.9-8.2,23-17.6,33-28c1.8-1.9,5,0.6,3.2,2.5c-10.3,10.7-21.6,20.3-33.8,28.8
		C1721.5,450.2,1719,447,1721.2,445.5z"/>
	<path class="st11" d="M1704,441c2.5-7.3,5-14.7,7.5-22c0.9-2.5,4.6-0.9,3.8,1.6l-7.5,22C1706.9,445.1,1703.2,443.5,1704,441z"/>
</g>
</svg>
