<svg xmlns="http://www.w3.org/2000/svg" viewBox="0 0 178.02 44.64"><defs><style>.cls-1{fill:#fff;}</style></defs><g id="Layer_2" data-name="Layer 2"><g id="Layer_1-2" data-name="Layer 1"><path class="cls-1" d="M22.32.71A21.61,21.61,0,1,1,.71,22.32,21.61,21.61,0,0,1,22.32.71m0-.71A22.32,22.32,0,1,0,44.64,22.32,22.34,22.34,0,0,0,22.32,0Z"/><path class="cls-1" d="M22.28,37.24A14.94,14.94,0,1,1,37.22,22.3,15,15,0,0,1,22.28,37.24ZM22.28,8A14.35,14.35,0,1,0,36.63,22.3,14.37,14.37,0,0,0,22.28,8Z"/><path class="cls-1" d="M76.66,31.78v1.91a2.41,2.41,0,0,1-1.84.74,2.17,2.17,0,0,1-2.31-2.3,2.36,2.36,0,0,1,4-1.61l-.54.54a1.64,1.64,0,0,0-1.13-.46,1.42,1.42,0,0,0-1.49,1.53,1.4,1.4,0,0,0,1.44,1.53,1.57,1.57,0,0,0,1.07-.36v-.79H74.67v-.73Z"/><path class="cls-1" d="M81.56,32.85H80.8v1.49h-.87V29.92H82a1.44,1.44,0,0,1,1.58,1.48,1.37,1.37,0,0,1-1.08,1.39l1.31,1.55H82.77ZM82,30.69H80.79V32.1H82a.67.67,0,0,0,.77-.7A.68.68,0,0,0,82,30.69Z"/><path class="cls-1" d="M90.28,33.57v.77H86.92V29.92h3.3v.75H87.78v1.06h2.33v.74H87.78v1.1Z"/><path class="cls-1" d="M96.9,33.57v.77H93.54V29.92h3.3v.75H94.4v1.06h2.33v.74H94.4v1.1Z"/><path class="cls-1" d="M104,29.92v4.42h-.79l-2.21-3,0,1.31v1.65h-.87V29.92H101l2.21,3v-3Z"/><path class="cls-1" d="M107.42,32.48V29.92h.87v2.54a1.08,1.08,0,1,0,2.14,0V29.92h.88v2.56a1.95,1.95,0,1,1-3.89,0Z"/><path class="cls-1" d="M118.44,31.48A1.51,1.51,0,0,1,116.79,33h-1.21v1.3h-.87V29.92h2.08A1.51,1.51,0,0,1,118.44,31.48Zm-.88,0a.74.74,0,0,0-.81-.77h-1.18v1.55h1.18A.74.74,0,0,0,117.56,31.48Z"/><path class="cls-1" d="M127.26,32.58v1.76h-.88V32.58l-1.74-2.66h1l1.15,1.83L128,29.92h1Z"/><path class="cls-1" d="M131.42,32.13a2.33,2.33,0,1,1,2.34,2.31A2.19,2.19,0,0,1,131.42,32.13Zm3.78,0a1.45,1.45,0,1,0-1.44,1.51A1.41,1.41,0,0,0,135.2,32.13Z"/><path class="cls-1" d="M139.22,32.48V29.92h.87v2.54a1.08,1.08,0,1,0,2.14,0V29.92h.88v2.56a1.95,1.95,0,1,1-3.89,0Z"/><path class="cls-1" d="M148.14,32.85h-.76v1.49h-.87V29.92h2.1a1.44,1.44,0,0,1,1.58,1.48,1.37,1.37,0,0,1-1.08,1.39l1.3,1.55h-1.06Zm.41-2.16h-1.18V32.1h1.18a.67.67,0,0,0,.77-.7A.68.68,0,0,0,148.55,30.69Z"/><path class="cls-1" d="M157.45,29.92h.87v3.62h2.29v.8h-3.16Z"/><path class="cls-1" d="M163.66,29.92h.87v4.42h-.87Z"/><path class="cls-1" d="M168.87,30.7v1.23h2.2v.76h-2.2v1.65H168V29.92h3.19v.78Z"/><path class="cls-1" d="M177.77,33.57v.77h-3.36V29.92h3.3v.75h-2.44v1.06h2.33v.74h-2.33v1.1Z"/><path class="cls-1" d="M21.29,24A5.53,5.53,0,0,1,17.35,28a.5.5,0,0,1-.6-.58,5.55,5.55,0,0,1,3.95-4A.5.5,0,0,1,21.29,24Z"/><path class="cls-1" d="M11,16.46a.12.12,0,0,1-.13-.12A1.6,1.6,0,0,1,12,14.81c1.37-.49,2.09.42,2.84,1.19a.13.13,0,0,1-.08.21Z"/><path class="cls-1" d="M12.35,21.94c-.39,0-.77,0-1.13-.05A2,2,0,0,1,9.37,20a1.41,1.41,0,0,1,.45-1.11.13.13,0,0,1,.18,0l2.45,2.8A.13.13,0,0,1,12.35,21.94Z"/><path class="cls-1" d="M12.41,23.35,10,26.1a.13.13,0,0,1-.17,0,1.59,1.59,0,0,1-.35-1.8c.37-.95,1.26-1.32,2.83-1.17A.12.12,0,0,1,12.41,23.35Z"/><path class="cls-1" d="M11,28.58l3.71.27a.12.12,0,0,1,.07.22,7.46,7.46,0,0,1-1.4,1.13,1.75,1.75,0,0,1-2.51-1.48A.13.13,0,0,1,11,28.58Z"/><path class="cls-1" d="M12.7,17.81a5.29,5.29,0,0,1,4.14,3.24.49.49,0,0,1-.5.64,5.22,5.22,0,0,1-4.14-3.24A.5.5,0,0,1,12.7,17.81Z"/><path class="cls-1" d="M16.86,24.12a5.23,5.23,0,0,1-4.2,3,.49.49,0,0,1-.49-.68,5.22,5.22,0,0,1,4.19-3A.5.5,0,0,1,16.86,24.12Z"/><path class="cls-1" d="M16.76,17.68a5.56,5.56,0,0,0,4,4,.5.5,0,0,0,.58-.58,5.53,5.53,0,0,0-4-4A.49.49,0,0,0,16.76,17.68Z"/><path class="cls-1" d="M23.69,21.64a5.53,5.53,0,0,0,3.94-3.94.5.5,0,0,0-.58-.6,5.53,5.53,0,0,0-4,4A.5.5,0,0,0,23.69,21.64Z"/><path class="cls-1" d="M16.14,11.38a.13.13,0,0,0-.12-.14,1.58,1.58,0,0,0-1.53,1.09c-.5,1.36.42,2.09,1.19,2.83a.13.13,0,0,0,.21-.08Z"/><path class="cls-1" d="M21.61,12.7c0-.39,0-.77,0-1.13A2,2,0,0,0,19.7,9.72a1.4,1.4,0,0,0-1.11.45.13.13,0,0,0,0,.18l2.8,2.45A.13.13,0,0,0,21.61,12.7Z"/><path class="cls-1" d="M23,12.76l2.75-2.39a.12.12,0,0,0,0-.17A1.59,1.59,0,0,0,24,9.85c-.95.37-1.32,1.26-1.18,2.83A.13.13,0,0,0,23,12.76Z"/><path class="cls-1" d="M28.26,11.38l.27,3.7a.13.13,0,0,0,.22.08,8.32,8.32,0,0,0,1.13-1.41,1.76,1.76,0,0,0-1.48-2.51A.13.13,0,0,0,28.26,11.38Z"/><path class="cls-1" d="M17.49,13.05a5.24,5.24,0,0,0,3.24,4.14.49.49,0,0,0,.64-.5,5.25,5.25,0,0,0-3.24-4.14A.5.5,0,0,0,17.49,13.05Z"/><path class="cls-1" d="M23.8,17.21a5.25,5.25,0,0,0,3-4.2.5.5,0,0,0-.68-.49,5.22,5.22,0,0,0-3,4.2A.5.5,0,0,0,23.8,17.21Z"/><path class="cls-1" d="M33.49,28.59a1.59,1.59,0,0,1-1.08,1.65c-1.48.54-2.21-.57-3-1.37Z"/><path class="cls-1" d="M31.74,23.11a15.17,15.17,0,0,1,1.84.11A1.68,1.68,0,0,1,35,24.64a1.49,1.49,0,0,1-.51,1.58Z"/><path class="cls-1" d="M31.81,21.89l2.63-3a1.54,1.54,0,0,1,.44,1.86C34.49,21.73,33.54,22.09,31.81,21.89Z"/><path class="cls-1" d="M33.5,16.48l-4.15-.3A11.09,11.09,0,0,1,31,14.86,1.76,1.76,0,0,1,33.5,16.48Z"/><path class="cls-1" d="M31.89,27.25a5.14,5.14,0,0,1-4.4-3.44.36.36,0,0,1,.35-.46,5.15,5.15,0,0,1,4.4,3.45A.37.37,0,0,1,31.89,27.25Z"/><path class="cls-1" d="M27.44,21.14a5.18,5.18,0,0,1,4.5-3.23.36.36,0,0,1,.35.48,5.17,5.17,0,0,1-4.5,3.25A.38.38,0,0,1,27.44,21.14Z"/><path class="cls-1" d="M27.65,27.58a5.47,5.47,0,0,0-4.22-4.23.37.37,0,0,0-.41.41A5.44,5.44,0,0,0,27.25,28,.36.36,0,0,0,27.65,27.58Z"/><path class="cls-1" d="M28.24,33.81a1.59,1.59,0,0,0,1.65-1.08c.54-1.48-.58-2.21-1.38-3Z"/><path class="cls-1" d="M22.76,32.06a13.39,13.39,0,0,0,.11,1.84,1.68,1.68,0,0,0,1.42,1.39,1.49,1.49,0,0,0,1.58-.5Z"/><path class="cls-1" d="M21.53,32.14l-3,2.62a1.55,1.55,0,0,0,1.86.45C21.38,34.81,21.73,33.86,21.53,32.14Z"/><path class="cls-1" d="M16.13,33.82l-.3-4.14a10.78,10.78,0,0,0-1.33,1.63A1.76,1.76,0,0,0,16.13,33.82Z"/><path class="cls-1" d="M26.9,32.21a5.16,5.16,0,0,0-3.44-4.4.36.36,0,0,0-.46.35,5.15,5.15,0,0,0,3.45,4.4A.36.36,0,0,0,26.9,32.21Z"/><path class="cls-1" d="M20.79,27.77a5.16,5.16,0,0,0-3.24,4.49.37.37,0,0,0,.49.35,5.17,5.17,0,0,0,3.25-4.49A.37.37,0,0,0,20.79,27.77Z"/><path class="cls-1" d="M22.27,41.22a18.9,18.9,0,1,1,18.9-18.9A18.92,18.92,0,0,1,22.27,41.22Zm0-37.06A18.16,18.16,0,1,0,40.43,22.32,18.18,18.18,0,0,0,22.27,4.16Z"/><path class="cls-1" d="M22.27,44.28a22,22,0,1,1,22-22A22,22,0,0,1,22.27,44.28Zm0-43.21A21.25,21.25,0,1,0,43.52,22.32,21.28,21.28,0,0,0,22.27,1.07Z"/><path class="cls-1" d="M22.74.55h.39L23,4.09l-.4,0Z"/><path class="cls-1" d="M24.32.64l.39,0-.36,3.51-.39,0Z"/><path class="cls-1" d="M25.89.84l.39.07-.61,3.47-.39-.06Z"/><path class="cls-1" d="M27.45,1.17l.39.09L27,4.68l-.38-.1Z"/><path class="cls-1" d="M29,1.6l.37.12L28.24,5.07l-.38-.13Z"/><path class="cls-1" d="M30.47,2.14l.37.15L29.48,5.55l-.37-.15Z"/><path class="cls-1" d="M31.92,2.79l.35.18L30.68,6.12l-.35-.18Z"/><path class="cls-1" d="M33.32,3.55l.33.2-1.81,3-.34-.2Z"/><path class="cls-1" d="M34.65,4.41l.33.22-2,2.88-.32-.22Z"/><path class="cls-1" d="M35.92,5.36l.31.25L34,8.33l-.3-.25Z"/><path class="cls-1" d="M37.12,6.39l.29.28L35,9.22,34.69,9Z"/><path class="cls-1" d="M38.24,7.52l.27.29L35.9,10.18l-.26-.29Z"/><path class="cls-1" d="M39.28,8.72l.24.31-2.77,2.18-.25-.31Z"/><path class="cls-1" d="M40.22,10l.22.33-2.92,2L37.3,12Z"/><path class="cls-1" d="M41.08,11.33l.19.35-3.06,1.75L38,13.09Z"/><path class="cls-1" d="M41.83,12.74l.17.35-3.18,1.52-.17-.35Z"/><path class="cls-1" d="M42.48,14.19l.14.37-3.28,1.28-.15-.37Z"/><path class="cls-1" d="M43,15.68l.12.38-3.37,1-.11-.38Z"/><path class="cls-1" d="M43.44,17.21l.09.38-3.43.8L40,18Z"/><path class="cls-1" d="M43.76,18.77l.06.39-3.49.54-.06-.39Z"/><path class="cls-1" d="M44,20.34l0,.39L40.48,21l0-.39Z"/><path class="cls-1" d="M44,21.9v.39l-3.53.06V22Z"/><path class="cls-1" d="M44,23.51l0,.39-3.52-.22,0-.39Z"/><path class="cls-1" d="M43.87,25.09l0,.39L40.33,25l.05-.39Z"/><path class="cls-1" d="M43.61,26.66l-.08.38-3.45-.73.08-.38Z"/><path class="cls-1" d="M43.24,28.2l-.11.38-3.38-1,.11-.38Z"/><path class="cls-1" d="M42.76,29.71l-.14.37-3.3-1.23.13-.37Z"/><path class="cls-1" d="M42.16,31.19l-.16.36-3.21-1.47.17-.36Z"/><path class="cls-1" d="M41.46,32.61l-.19.35-3.09-1.7.19-.35Z"/><path class="cls-1" d="M40.66,34l-.21.33-3-1.92.21-.33Z"/><path class="cls-1" d="M39.76,35.29l-.24.32-2.81-2.13.24-.31Z"/><path class="cls-1" d="M38.77,36.53l-.26.29L35.86,34.5l.26-.3Z"/><path class="cls-1" d="M37.69,37.69l-.28.28-2.47-2.51.28-.28Z"/><path class="cls-1" d="M36.53,38.77l-.3.26L34,36.35l.3-.26Z"/><path class="cls-1" d="M35.3,39.77,35,40,32.9,37.16l.31-.23Z"/><path class="cls-1" d="M34,40.67l-.33.21-1.87-3,.33-.21Z"/><path class="cls-1" d="M32.63,41.48l-.35.18-1.65-3.11.35-.19Z"/><path class="cls-1" d="M31.2,42.19l-.37.15-1.41-3.23.36-.15Z"/><path class="cls-1" d="M29.73,42.78l-.38.13-1.17-3.32.37-.13Z"/><path class="cls-1" d="M28.21,43.27l-.38.11L26.9,40l.38-.11Z"/><path class="cls-1" d="M26.67,43.65l-.39.07-.67-3.46.38-.07Z"/><path class="cls-1" d="M25.1,43.91l-.39.05-.42-3.5.39-.05Z"/><path class="cls-1" d="M23.53,44.06l-.4,0L23,40.55h.39Z"/><path class="cls-1" d="M22,44.09h-.4l.08-3.52H22Z"/><path class="cls-1" d="M20.36,44,20,44l.34-3.51.39,0Z"/><path class="cls-1" d="M18.79,43.81l-.39-.06L19,40.27l.39.07Z"/><path class="cls-1" d="M17.22,43.5l-.38-.09L17.69,40l.38.09Z"/><path class="cls-1" d="M15.69,43.08,15.32,43l1.09-3.35.38.12Z"/><path class="cls-1" d="M14.19,42.55l-.36-.15,1.34-3.27.36.15Z"/><path class="cls-1" d="M12.74,41.9l-.35-.17L14,38.57l.36.18Z"/><path class="cls-1" d="M11.34,41.15,11,41l1.8-3,.34.2Z"/><path class="cls-1" d="M10,40.31l-.32-.23,2-2.89.33.23Z"/><path class="cls-1" d="M8.72,39.37l-.3-.25,2.22-2.74.3.25Z"/><path class="cls-1" d="M7.52,38.33l-.29-.27,2.41-2.57.29.27Z"/><path class="cls-1" d="M6.39,37.22l-.27-.29,2.6-2.39.26.29Z"/><path class="cls-1" d="M5.35,36l-.25-.31,2.76-2.19.25.31Z"/><path class="cls-1" d="M4.4,34.75l-.23-.32,2.91-2,.23.33Z"/><path class="cls-1" d="M3.54,33.42l-.2-.34,3-1.78.2.35Z"/><path class="cls-1" d="M2.78,32l-.18-.35,3.17-1.55.17.36Z"/><path class="cls-1" d="M2.12,30.58,2,30.21l3.28-1.3.14.36Z"/><path class="cls-1" d="M1.57,29.09l-.12-.38,3.36-1.06.12.37Z"/><path class="cls-1" d="M1.13,27.56,1,27.18l3.43-.82.09.38Z"/><path class="cls-1" d="M.81,26l-.06-.38,3.48-.57.06.39Z"/><path class="cls-1" d="M.6,24.43l0-.39,3.51-.31,0,.39Z"/><path class="cls-1" d="M.5,22.86v-.4L4,22.4v.4Z"/><path class="cls-1" d="M.52,21.26l0-.39,3.52.2,0,.39Z"/><path class="cls-1" d="M.66,19.68l0-.39,3.49.45,0,.39Z"/><path class="cls-1" d="M.9,18.11,1,17.73l3.46.71-.08.38Z"/><path class="cls-1" d="M1.27,16.57l.1-.38,3.4,1-.11.38Z"/><path class="cls-1" d="M1.74,15.05l.14-.37,3.31,1.21-.14.37Z"/><path class="cls-1" d="M2.32,13.58l.17-.36L5.7,14.66,5.54,15Z"/><path class="cls-1" d="M3,12.14l.19-.34,3.1,1.67-.19.35Z"/><path class="cls-1" d="M3.81,10.77,4,10.44l3,1.9-.21.33Z"/><path class="cls-1" d="M4.7,9.46l.24-.32,2.82,2.11-.23.32Z"/><path class="cls-1" d="M5.69,8.21,6,7.91l2.66,2.31-.26.3Z"/><path class="cls-1" d="M6.76,7,7,6.76l2.49,2.5-.28.28Z"/><path class="cls-1" d="M7.92,6l.29-.26,2.3,2.67-.29.26Z"/><path class="cls-1" d="M9.14,5l.32-.24,2.1,2.83-.32.24Z"/><path class="cls-1" d="M10.44,4l.33-.21,1.89,3L12.33,7Z"/><path class="cls-1" d="M11.8,3.22,12.15,3l1.67,3.1-.35.19Z"/><path class="cls-1" d="M13.23,2.51l.35-.16L15,5.57l-.36.16Z"/><path class="cls-1" d="M14.69,1.9l.37-.13,1.2,3.31-.37.14Z"/><path class="cls-1" d="M16.2,1.4l.38-.1,1,3.39-.38.11Z"/><path class="cls-1" d="M17.74,1l.39-.08.7,3.45-.39.08Z"/><path class="cls-1" d="M19.3.75,19.7.7l.44,3.49-.39,0Z"/><path class="cls-1" d="M20.88.59l.4,0,.19,3.52-.39,0Z"/><path class="cls-1" d="M70.72,12.53H67.16A5.89,5.89,0,0,1,68,15.64a6.1,6.1,0,0,1-.52,2.54A5.33,5.33,0,0,1,66,20.09a7,7,0,0,1-2.22,1.21,9.06,9.06,0,0,1-2.84.42,10.82,10.82,0,0,1-1.42-.09,7.92,7.92,0,0,1-1.32-.28,6.16,6.16,0,0,0-.43.78,2,2,0,0,0-.16.82,1.4,1.4,0,0,0,.57,1.22,3.32,3.32,0,0,0,1.87.41H64c2.32,0,4,.39,5,1.18a3.92,3.92,0,0,1,1.54,3.3,5.15,5.15,0,0,1-.61,2.43,6,6,0,0,1-1.85,2.06A10,10,0,0,1,65,35a15.87,15.87,0,0,1-4.39.54q-4,0-5.82-1.09a3.18,3.18,0,0,1-1-5,8.21,8.21,0,0,1,2.6-1.85,3.4,3.4,0,0,1-1.54-1.32,3.27,3.27,0,0,1-.46-1.68,3.35,3.35,0,0,1,.66-2,8.12,8.12,0,0,1,1.86-1.76,5.66,5.66,0,0,1-2.15-2.08,5.85,5.85,0,0,1-.78-3.08,5.89,5.89,0,0,1,.52-2.5,5.34,5.34,0,0,1,1.44-1.91A6.54,6.54,0,0,1,58.12,10,9.16,9.16,0,0,1,61,9.6a7.74,7.74,0,0,1,4.86,1.45l4.33-1.41.56.37ZM59.6,28.21a9.36,9.36,0,0,1-1.1-.06c-.33,0-.64-.08-.94-.13a5.78,5.78,0,0,0-.69,1.25,3.51,3.51,0,0,0-.24,1.31A2.6,2.6,0,0,0,57.84,33a6.23,6.23,0,0,0,3.17.7,8.36,8.36,0,0,0,4.46-1A2.79,2.79,0,0,0,67,30.4a1.86,1.86,0,0,0-.17-.8,1.8,1.8,0,0,0-.55-.7,2.86,2.86,0,0,0-1-.5,5.49,5.49,0,0,0-1.59-.19Zm1.3-8.08a2.85,2.85,0,0,0,2.46-1.22,5.61,5.61,0,0,0,.87-3.3,5.54,5.54,0,0,0-.85-3.25A2.78,2.78,0,0,0,61,11.16a2.82,2.82,0,0,0-2.45,1.22,5.61,5.61,0,0,0-.85,3.26,5.71,5.71,0,0,0,.83,3.28A2.74,2.74,0,0,0,60.9,20.13Z"/><path class="cls-1" d="M78.71,13.12a9.08,9.08,0,0,1,2.16-2.83,3.86,3.86,0,0,1,2.49-1,3,3,0,0,1,1.43.4,1.9,1.9,0,0,1,.93,1.43,2,2,0,0,1-.6,1.54,2.14,2.14,0,0,1-1.56.58,3.1,3.1,0,0,1-2.23-1.09L81.17,12a8.49,8.49,0,0,0-2.43,3.56v5.67q0,1.41,0,2.67l2.66.5v1.33H72.79V24.35L75,23.92c0-.82,0-1.71,0-2.68V16.9c0-.9,0-1.64,0-2.21s0-1.18-.07-1.84l-2.43-.3V11.32l5.35-2.06.5.33Z"/><path class="cls-1" d="M90.84,17.74a6.77,6.77,0,0,0,1.46,4.55,5.15,5.15,0,0,0,6.17.88,6.86,6.86,0,0,0,1.84-1.78l1,.6a6.18,6.18,0,0,1-2.5,3.09,7.58,7.58,0,0,1-4.15,1.1,8.42,8.42,0,0,1-3.18-.57A6.54,6.54,0,0,1,89,24a7.43,7.43,0,0,1-1.57-2.63,10.58,10.58,0,0,1-.54-3.5,9.49,9.49,0,0,1,.61-3.48,8.26,8.26,0,0,1,1.7-2.71,7.67,7.67,0,0,1,2.54-1.76,7.8,7.8,0,0,1,3.12-.63,7.22,7.22,0,0,1,2.68.48A5.84,5.84,0,0,1,101,13.2a7.63,7.63,0,0,1,.49,2.77,7.06,7.06,0,0,1-.07,1,7.85,7.85,0,0,1-.17.82Zm5-1.53a2,2,0,0,0,1.61-.5,2.11,2.11,0,0,0,.42-1.4,3.67,3.67,0,0,0-.85-2.49,2.64,2.64,0,0,0-2.11-1,3.5,3.5,0,0,0-1.3.28,3.64,3.64,0,0,0-1.24.92,5,5,0,0,0-1,1.66,9.26,9.26,0,0,0-.54,2.53Z"/><path class="cls-1" d="M108.09,17.74a6.77,6.77,0,0,0,1.46,4.55,5.15,5.15,0,0,0,6.17.88,6.86,6.86,0,0,0,1.84-1.78l1,.6a6.13,6.13,0,0,1-2.5,3.09,7.58,7.58,0,0,1-4.15,1.1,8.46,8.46,0,0,1-3.18-.57A6.54,6.54,0,0,1,106.28,24a7.27,7.27,0,0,1-1.56-2.63,10.33,10.33,0,0,1-.55-3.5,9.49,9.49,0,0,1,.61-3.48,8.26,8.26,0,0,1,1.7-2.71,7.77,7.77,0,0,1,5.67-2.39,7.21,7.21,0,0,1,2.67.48,5.9,5.9,0,0,1,3.43,3.46,7.63,7.63,0,0,1,.48,2.77,5.73,5.73,0,0,1-.07,1,5.91,5.91,0,0,1-.17.82Zm5-1.53a2.07,2.07,0,0,0,1.62-.5,2.16,2.16,0,0,0,.41-1.4,3.67,3.67,0,0,0-.85-2.49,2.64,2.64,0,0,0-2.11-1,3.41,3.41,0,0,0-1.29.28,3.67,3.67,0,0,0-1.25.92,5,5,0,0,0-1,1.66,9.28,9.28,0,0,0-.53,2.53Z"/><path class="cls-1" d="M139.67,24.35v1.33h-8.11V24.35l2.23-.43c0-.82,0-1.71,0-2.66V15.64a6.14,6.14,0,0,0-.52-3,1.9,1.9,0,0,0-1.81-.88,4.48,4.48,0,0,0-2.06.51,9.42,9.42,0,0,0-2.09,1.55v7.38c0,.95,0,1.85,0,2.69l2.13.43v1.33h-8.15V24.35l2.26-.43c0-.84,0-1.74,0-2.69V16.9c0-.9,0-1.64,0-2.21s0-1.18-.06-1.84l-2.43-.3V11.32l5.35-2.06.5.33.27,2.66A10.42,10.42,0,0,1,129.91,10a6.08,6.08,0,0,1,3-.75,4.17,4.17,0,0,1,3.44,1.41,7.23,7.23,0,0,1,1.15,4.57v6c0,.95,0,1.84,0,2.66Z"/><path class="cls-1" d="M148,25a4.35,4.35,0,0,0,2.42-.73l.45.64a4.39,4.39,0,0,1-3.26,1.24c-2.38,0-3.47-1.33-3.43-3.95,0-.7,0-1.34,0-2.4V11.18h-3.3v-1l4.24-.31-1,.7.62-5.36H146l-.18,5.68V22.09C145.86,24.11,146.63,25,148,25Zm2.57-15v1.18H145V10Z"/><path class="cls-1" d="M155.6,25.68c.07-1.5.1-4.92.1-7V17.1c0-2,0-3.63-.08-5.39l-3-.12v-.87L157,9.67l.4.25L157.31,14V18.7c0,2.06,0,5.48.1,7Zm4.34-.87v.87h-7.12v-.87l3.46-.39h.45ZM154.83,3.37a1.53,1.53,0,0,1,3,0,1.53,1.53,0,0,1-3,0Z"/><path class="cls-1" d="M164.94,24.46l2.89.35v.87h-6.09v-.87l2.74-.35Zm.06-13.2-3-.35V10h6.57v.91l-3.08.35Zm-1.92,14.42,6.47-8.32.68.61-5.75,7.71ZM165.31,10l5,7.14,6.14,8.54h-2l-5.17-7.38-5.9-8.3Zm11.2,0-6.3,8.16-.67-.63L175.13,10ZM175,24.42l3.07.39v.87h-6.91v-.87l3.4-.39Zm-.31-13.17-2.89-.34V10h6v.91l-2.63.34Z"/><path class="cls-1" d="M5.71,23.45a.72.72,0,1,1,.71-.72A.72.72,0,0,1,5.71,23.45Zm0-1.18a.47.47,0,1,0,.47.46A.47.47,0,0,0,5.71,22.27Z"/><circle class="cls-1" cx="5.71" cy="22.73" r="0.25"/><circle class="cls-1" cx="38.74" cy="22.73" r="0.25"/><path class="cls-1" d="M38.74,23.45a.72.72,0,1,1,0-1.43.72.72,0,1,1,0,1.43Zm0-1.18a.47.47,0,1,0,.47.46A.47.47,0,0,0,38.74,22.27Z"/><path class="cls-1" d="M6.88,27.08l-.31.1.18.56-.19.06-.18-.56L6,27.37l-.07-.22L7,26.8l.26.8-.2.07Z"/><path class="cls-1" d="M7.16,28.94a.62.62,0,0,1,.53,1.11.62.62,0,1,1-.53-1.11Zm.43.9a.38.38,0,1,0-.53-.17A.38.38,0,0,0,7.59,29.84Z"/><path class="cls-1" d="M8.31,31.12a.62.62,0,1,1,.7,1,.62.62,0,0,1-.7-1Zm.57.82a.38.38,0,1,0-.43-.63.38.38,0,1,0,.43.63Z"/><path class="cls-1" d="M10.67,33.51l-.24-.27-.72.65-.15-.17.71-.65L10,32.79l.15-.14.66.72Z"/><path class="cls-1" d="M12.17,35.15a.39.39,0,0,1-.6,0l-.25-.2-.22.26-.17-.15.75-.89.42.35A.4.4,0,0,1,12.17,35.15ZM12,35a.2.2,0,0,0,0-.3l-.24-.2-.26.32.24.2A.19.19,0,0,0,12,35Z"/><path class="cls-1" d="M13.35,36.43l-.17-.11-.21.33-.19-.12.62-1,.48.29a.39.39,0,0,1,.14.56.37.37,0,0,1-.44.16l.07.53-.23-.15Zm.4-.43-.26-.17-.2.32.26.17a.19.19,0,0,0,.28,0A.19.19,0,0,0,13.75,36Z"/><path class="cls-1" d="M15.35,36.65l.2.09-.5,1.06-.21-.1Z"/><path class="cls-1" d="M17.72,37.58l-.37,1.11-.2-.07-.31-.93-.1.33-.14.42-.22-.08.37-1.11.2.07.3.93.11-.32.14-.43Z"/><path class="cls-1" d="M19.78,38.25l-.36-.07-.18,1-.23,0,.18-1-.37-.07,0-.2,1,.18Z"/><path class="cls-1" d="M20.91,38.83a.22.22,0,0,1,.44,0,.2.2,0,0,1-.23.19A.2.2,0,0,1,20.91,38.83Z"/><path class="cls-1" d="M23.15,39H23l0,.39h-.23l-.07-1.17.56,0a.38.38,0,0,1,.44.37.37.37,0,0,1-.27.39l.37.39h-.28Zm.08-.58-.32,0,0,.37.32,0c.13,0,.2-.08.19-.19A.18.18,0,0,0,23.23,38.41Z"/><path class="cls-1" d="M25.87,38.79l-.59.12-.05.24L25,39.2,25.27,38l.25-.05L26.26,39,26,39Zm-.55-.1.43-.08-.31-.46Z"/><path class="cls-1" d="M27.14,37.47l.22-.07.37,1.11-.22.07Z"/><path class="cls-1" d="M29.5,36.5l.5,1.06-.19.09L29,37.19l.15.31.19.4-.21.1-.5-1.06.19-.09.86.46-.14-.3-.2-.41Z"/><path class="cls-1" d="M30.94,35.91l.17.27.49-.32.11.17-.49.32.24.37-.19.12-.64-1,.71-.46.11.17Z"/><path class="cls-1" d="M32.65,35.15a.62.62,0,1,1,.87.06A.58.58,0,0,1,32.65,35.15Zm.75-.66a.37.37,0,0,0-.55-.05.38.38,0,0,0,0,.56.37.37,0,0,0,.55,0A.38.38,0,0,0,33.4,34.49Z"/><path class="cls-1" d="M34.92,33.2l-.14.16.3.25-.15.18L34,33l.36-.43a.39.39,0,0,1,.57-.06.36.36,0,0,1,.1.46h.54l-.19.22Zm-.37-.45-.2.23.28.25.2-.24a.18.18,0,0,0,0-.28A.19.19,0,0,0,34.55,32.75Z"/><path class="cls-1" d="M36.72,31.05l.17.11-.48.75-1-.63.47-.74.17.11-.35.54.24.15.33-.52.17.11-.34.52.25.16Z"/><path class="cls-1" d="M37.4,29.94l-.1-.18a.59.59,0,0,0,.27-.29c.07-.14.06-.25,0-.29s-.16,0-.25.17-.33.36-.52.27-.23-.32-.12-.57a.71.71,0,0,1,.32-.34l.1.17a.48.48,0,0,0-.23.24c-.07.14-.05.25,0,.29s.15,0,.25-.17.34-.36.53-.27.25.33.12.59A.74.74,0,0,1,37.4,29.94Z"/><path class="cls-1" d="M37.77,26.72l-.11.35.92.3-.07.22-.92-.29-.11.35-.2-.06.3-.93Z"/><path class="cls-1" d="M5.74,17.62l1.12.3-.06.22L6.33,18l-.14.53.47.12-.06.23-1.12-.3.06-.22L6,18.5,6.13,18l-.45-.12Z"/><path class="cls-1" d="M6.75,16.73l-.63-.25.09-.21.62.25A.28.28,0,1,0,7,16l-.62-.25.09-.21.62.25a.47.47,0,0,1,.28.67A.47.47,0,0,1,6.75,16.73Z"/><path class="cls-1" d="M7.67,13.36l1,.58-.11.2-.68-.39.22.56,0,0-.6.08.68.4L8,15l-1-.58.11-.17.66-.1-.24-.63Z"/><path class="cls-1" d="M9.6,12.28l-.36.47.11.21-.15.2L8.61,12l.15-.2,1.23.3-.15.2Zm-.47.28.26-.34-.53-.14Z"/><path class="cls-1" d="M10.53,9.91l.82.83-.15.14-1-.14.25.24.3.31-.16.16-.82-.83.15-.14,1,.15-.24-.24-.31-.32Z"/><path class="cls-1" d="M11.45,9.13,11.62,9l.73.91-.18.14Z"/><path class="cls-1" d="M13.42,8l-.31.2.52.8-.19.12-.52-.8-.31.2-.11-.17.81-.52Z"/><path class="cls-1" d="M15.07,7.65l.21.41-.21.11-.2-.42-.72-.42.24-.12.48.3.07-.57.24-.12Z"/><path class="cls-1" d="M16.39,7a.21.21,0,0,1,.4-.15.19.19,0,0,1-.13.27A.21.21,0,0,1,16.39,7Z"/><path class="cls-1" d="M17.78,6.48a.62.62,0,0,1,.93-.66L18.6,6a.35.35,0,0,0-.3,0,.37.37,0,0,0-.29.48.39.39,0,0,0,.48.3.43.43,0,0,0,.26-.19l.18.11a.64.64,0,0,1-1.15-.17Z"/><path class="cls-1" d="M19.8,5.47l.23,0,.12.95.6-.07,0,.21-.83.1Z"/><path class="cls-1" d="M21.74,5.3H22l0,1.17h-.23Z"/><path class="cls-1" d="M24.46,5.42l-.1,1.17-.23,0,.07-.79-.42.44h-.05l-.33-.5-.07.79-.23,0,.1-1.17.21,0,.37.57.47-.5Z"/><path class="cls-1" d="M26.28,6.73l-.59-.14-.15.2-.25,0,.78-1,.25.06L26.57,7l-.25,0Zm-.46-.32.42.1L26.14,6Z"/><path class="cls-1" d="M28.52,6.68l-.35-.13-.33.91-.22-.08L28,6.47l-.35-.13.07-.19.92.33Z"/><path class="cls-1" d="M30,8.19l-.09.18L29.09,8l.52-1,.78.4-.09.18-.58-.29-.12.25.55.27-.09.18-.55-.28-.13.26Z"/><path class="cls-1" d="M32.11,9.08A.58.58,0,0,1,33,9a.61.61,0,0,1,.24.41l-.21,0a.37.37,0,0,0-.15-.27.39.39,0,0,0-.56.07.38.38,0,0,0,.06.56.42.42,0,0,0,.32.09l0,.21a.62.62,0,0,1-.47-.13A.6.6,0,0,1,32.11,9.08Z"/><path class="cls-1" d="M34.89,10.77l-.84.82-.16-.16.35-.35-.4-.39L33.5,11l-.17-.16.84-.83.16.16-.33.34.39.39.33-.33Z"/><path class="cls-1" d="M35.45,12.93l-.37-.48-.24.06-.15-.2L35.94,12l.15.2-.61,1.13-.16-.21Zm-.16-.54.27.35.27-.48Z"/><path class="cls-1" d="M37.52,14.45l-1,.58-.1-.18.39-.9-.3.18-.38.21-.12-.2,1-.58.11.18-.4.9.29-.16.4-.23Z"/><path class="cls-1" d="M38,16.71l-.47.19a.64.64,0,0,1-.36-.38.58.58,0,0,1,.33-.8.61.61,0,0,1,.81.35.62.62,0,0,1,0,.48l-.19-.08a.36.36,0,0,0,0-.32.37.37,0,0,0-.52-.21.36.36,0,0,0-.23.5.41.41,0,0,0,.19.23l.2-.08-.12-.3.17-.07Z"/><path class="cls-1" d="M38.12,18.76l-.2,0L37.69,18l1.13-.3.23.84-.19.05-.17-.62-.27.07.16.6-.19.05-.16-.6-.28.08Z"/></g></g></svg>