<svg xmlns="http://www.w3.org/2000/svg" viewBox="0 0 478.79 145.83"><defs><style>.cls-1,.cls-4{fill:#3d174f;}.cls-2{fill:#7c2a8b;}.cls-3{fill:#ed1849;}.cls-4{font-size:87.12px;font-family:Ubuntu-Medium, Ubuntu;font-weight:500;}.cls-5{letter-spacing:-0.02em;}</style></defs><g id="Laag_2" data-name="Laag 2"><g id="Layer_1" data-name="Layer 1"><path class="cls-1" d="M72.92,145.83a72.91,72.91,0,0,1-47.81-128,5.09,5.09,0,1,1,6.67,7.68A62.47,62.47,0,1,0,48.9,14.93,5.09,5.09,0,0,1,45,5.53a72.92,72.92,0,1,1,27.91,140.3Z"/><path class="cls-2" d="M72.92,125.75a52.88,52.88,0,1,1,52.83-52.83,5.09,5.09,0,0,1-10.17,0,42.67,42.67,0,1,0-42.66,42.66,5.09,5.09,0,0,1,0,10.17Z"/><path class="cls-3" d="M72.92,105.67a32.76,32.76,0,1,1,0-65.51,5.09,5.09,0,0,1,0,10.17A22.59,22.59,0,1,0,95.5,72.92a5.09,5.09,0,1,1,10.17,0A32.79,32.79,0,0,1,72.92,105.67Z"/><text class="cls-4" transform="translate(172.02 104.73)"><tspan class="cls-5">F</tspan><tspan x="45.83" y="0">remen</tspan></text></g></g></svg>